<svg width="501" height="501" viewBox="0 0 501 501" fill="none" xmlns="http://www.w3.org/2000/svg">
<path d="M190.345 229.051C200.659 237.069 215.519 235.207 223.537 224.894C231.555 214.58 229.693 199.72 219.38 191.702C210.558 184.844 198.414 185.22 190.067 191.924L190.06 191.918L184.871 187.884L177.166 190.286L178.048 182.58L171.546 177.526L163.841 179.928L164.723 172.222L159.134 167.878L154.438 169.342L154.976 164.646L151.723 162.117L144.347 162.845L143.355 174.181L182.015 204.235C179.622 213.15 182.6 223.03 190.345 229.051ZM218.509 220.986C216.209 223.944 211.946 224.478 208.988 222.178C206.03 219.878 205.496 215.615 207.796 212.657C210.096 209.699 214.359 209.165 217.317 211.464C220.275 213.764 220.809 218.027 218.509 220.986Z" fill="#EBEBEB"/>
<path d="M221.5 138.667C225.925 133.25 225.122 125.272 219.705 120.847C214.288 116.422 206.31 117.225 201.885 122.642C198.1 127.275 198.143 133.78 201.624 138.335L201.621 138.339L199.394 141.064L200.58 145.219L196.467 144.647L193.677 148.062L194.863 152.217L190.75 151.645L188.352 154.58L189.075 157.113L186.568 156.764L185.172 158.472L185.466 162.43L191.521 163.108L208.109 142.804C212.85 144.201 218.177 142.735 221.5 138.667ZM217.548 123.488C219.102 124.758 219.332 127.046 218.063 128.6C216.794 130.154 214.505 130.384 212.951 129.115C211.397 127.846 211.167 125.557 212.436 124.003C213.705 122.449 215.994 122.218 217.548 123.488Z" fill="#EBEBEB"/>
<path d="M429.685 469.601C429.685 469.745 343.801 469.861 237.881 469.861C131.925 469.861 46.0587 469.744 46.0587 469.601C46.0587 469.458 131.925 469.341 237.881 469.341C343.801 469.341 429.685 469.457 429.685 469.601Z" fill="#263238"/>
<path d="M349.483 433.396L374.238 469.393L383.086 469.601L366.862 432.586L349.483 433.396Z" fill="#263238"/>
<path d="M88.3107 435.236L75.2687 469.229H81.7897L104.568 435.385L88.3107 435.236Z" fill="#263238"/>
<path d="M82.7247 311.702L83.6807 355.687C83.8157 361.908 88.8247 366.919 95.0457 367.058L341.237 372.538C347.758 372.683 353.122 367.437 353.122 360.915V307.925C353.122 292.281 341.587 279.031 326.09 276.9C281.022 270.703 188.067 261.172 112.945 274.715C95.1447 277.923 82.3317 293.618 82.7247 311.702Z" fill="#F30651"/>
<path d="M81.6187 327.072C81.6187 327.072 61.3367 317.685 57.1877 327.072C53.0387 336.459 57.6487 347.983 62.2587 354.436C66.8687 360.889 66.7937 440.176 66.7937 440.176L374.37 436.889L378.015 360.617C378.015 360.617 392.766 342.451 391.844 334.615C390.922 326.779 378.476 315.38 364.187 327.072C349.897 338.764 346.21 363.195 346.21 363.195L100.981 365.039C100.979 365.039 101.79 330.706 81.6187 327.072Z" fill="#F30651"/>
<path d="M343.075 378.427C343.075 378.571 288.587 378.687 221.388 378.687C154.166 378.687 99.6897 378.571 99.6897 378.427C99.6897 378.283 154.166 378.167 221.388 378.167C288.587 378.167 343.075 378.284 343.075 378.427Z" fill="#263238"/>
<path d="M99.6896 411.998C99.6806 411.998 99.6716 411.917 99.6616 411.757C99.6536 411.567 99.6426 411.334 99.6306 411.049C99.6066 410.426 99.5866 409.507 99.5776 408.325C99.5716 405.914 99.5626 402.503 99.5526 398.308C99.5406 389.852 99.6116 378.166 99.2266 365.274C98.9916 358.837 98.7606 352.669 97.8196 347.191C97.6406 346.529 97.4646 345.876 97.2906 345.23C97.0396 344.602 96.7976 343.977 96.5326 343.373C96.0046 342.165 95.4646 341.003 94.8746 339.916C93.7146 337.731 92.4476 335.796 91.1306 334.158C89.8156 332.518 88.4516 331.182 87.1576 330.128C85.8456 329.096 84.6166 328.339 83.5636 327.815C81.4496 326.778 80.1466 326.525 80.1706 326.45C80.1726 326.441 80.2536 326.456 80.4086 326.494C80.5936 326.543 80.8186 326.602 81.0956 326.675C81.7036 326.822 82.5726 327.14 83.6536 327.632C84.7316 328.133 85.9926 328.874 87.3396 329.899C88.6676 330.944 90.0686 332.28 91.4176 333.925C92.7686 335.568 94.0686 337.513 95.2566 339.711C95.8606 340.805 96.4136 341.974 96.9536 343.19C97.2246 343.798 97.4726 344.425 97.7296 345.06C97.9146 345.729 98.1016 346.407 98.2916 347.094C99.2706 352.644 99.5116 358.805 99.7486 365.257C100.134 378.164 100.004 389.852 99.9216 398.309C99.8626 402.503 99.8146 405.913 99.7806 408.324C99.7616 409.472 99.7466 410.381 99.7356 411.047C99.7276 411.332 99.7206 411.565 99.7146 411.755C99.7066 411.916 99.6986 411.998 99.6896 411.998Z" fill="#263238"/>
<path d="M79.2197 344.775C79.2087 344.754 79.4787 344.584 80.0377 344.521C80.5867 344.457 81.4507 344.567 82.2927 345.15C82.7057 345.442 83.1157 345.849 83.3937 346.395C83.6687 346.939 83.7997 347.617 83.6857 348.296C83.4877 349.635 82.4267 351.045 80.8127 351.364C79.1917 351.637 77.7037 350.711 77.0147 349.552C76.6517 348.97 76.5087 348.3 76.5277 347.696C76.5537 347.088 76.7367 346.545 76.9737 346.1C77.4607 345.203 78.1567 344.701 78.6597 344.476C79.1707 344.247 79.4857 344.242 79.4897 344.267C79.5017 344.312 79.2067 344.386 78.7547 344.655C78.3087 344.92 77.7047 345.431 77.3027 346.267C76.8987 347.081 76.7597 348.285 77.4237 349.301C78.0407 350.301 79.3697 351.087 80.7197 350.852C82.0627 350.597 83.0237 349.375 83.2127 348.22C83.4437 347.029 82.8047 345.985 82.0757 345.447C81.3417 344.885 80.5627 344.723 80.0467 344.724C79.5227 344.72 79.2337 344.82 79.2197 344.775Z" fill="#263238"/>
<path d="M80.6136 364.513C80.5746 364.554 79.9296 364.016 79.2226 362.873C78.5176 361.745 77.8127 359.952 77.7887 357.881C77.7637 355.809 78.4257 354 79.1037 352.856C79.7827 351.696 80.4147 351.144 80.4547 351.183C80.5217 351.238 79.9996 351.868 79.4286 353.029C78.8556 354.179 78.2866 355.912 78.3096 357.875C78.3336 359.836 78.9436 361.556 79.5436 362.692C80.1426 363.839 80.6796 364.457 80.6136 364.513Z" fill="#263238"/>
<path d="M77.3987 334.824C77.4767 334.859 77.2607 335.406 77.0927 336.318C76.9207 337.227 76.8547 338.518 77.1437 339.897C77.4407 341.275 78.0257 342.427 78.5527 343.188C79.0767 343.953 79.4967 344.365 79.4397 344.429C79.4047 344.474 78.8867 344.155 78.2587 343.41C77.6307 342.673 76.9487 341.468 76.6347 340.005C76.3267 338.541 76.4597 337.164 76.7337 336.234C77.0047 335.3 77.3477 334.798 77.3987 334.824Z" fill="#263238"/>
<path d="M71.4077 345.886C71.5217 345.782 72.4527 346.722 73.8707 347.45C75.2797 348.196 76.5827 348.421 76.5627 348.574C76.5647 348.708 75.1437 348.709 73.6297 347.912C72.1107 347.127 71.2977 345.961 71.4077 345.886Z" fill="#263238"/>
<path d="M375.559 411.998C375.559 412.142 306.18 412.258 220.618 412.258C135.025 412.258 65.6617 412.141 65.6617 411.998C65.6617 411.855 135.026 411.738 220.618 411.738C306.18 411.737 375.559 411.854 375.559 411.998Z" fill="#263238"/>
<path d="M342.007 363.447C342.151 363.447 342.267 374.309 342.267 387.706C342.267 401.107 342.15 411.967 342.007 411.967C341.864 411.967 341.747 401.107 341.747 387.706C341.746 374.309 341.863 363.447 342.007 363.447Z" fill="#263238"/>
<path d="M239.292 279.542C239.292 279.542 239.131 279.563 238.816 279.578C238.479 279.591 238.015 279.608 237.418 279.63C236.164 279.665 234.357 279.716 232.042 279.781C227.349 279.89 220.599 280.046 212.267 280.238C195.548 280.574 172.491 281.038 147.023 281.55C140.652 281.704 134.424 281.684 128.441 282.079C122.468 282.475 116.695 283.311 111.519 285.168C106.326 286.95 101.852 289.923 98.6536 293.601C97.0626 295.441 95.7206 297.397 94.7136 299.427C93.6366 301.423 92.9196 303.488 92.2656 305.458C91.0796 309.447 90.5466 313.197 90.2416 316.489C89.9356 319.787 89.8996 322.644 89.8846 324.976C89.8746 327.309 89.9246 329.122 89.9516 330.35C89.9646 330.947 89.9746 331.411 89.9816 331.748C89.9856 332.063 89.9736 332.225 89.9736 332.225C89.9736 332.225 89.9496 332.065 89.9276 331.75C89.9076 331.413 89.8806 330.949 89.8456 330.353C89.7846 329.125 89.7016 327.313 89.6806 324.976C89.6646 322.64 89.6716 319.776 89.9506 316.463C90.2286 313.155 90.7386 309.381 91.9116 305.35C92.5596 303.358 93.2736 301.268 94.3546 299.241C95.3646 297.182 96.7166 295.189 98.3266 293.315C101.56 289.566 106.107 286.528 111.356 284.714C116.591 282.823 122.407 281.973 128.405 281.568C134.417 281.165 140.642 281.181 147.011 281.027C172.48 280.574 195.539 280.165 212.258 279.867C220.591 279.744 227.342 279.644 232.036 279.575C234.352 279.552 236.16 279.534 237.414 279.522C238.011 279.522 238.475 279.521 238.813 279.521C239.13 279.527 239.292 279.542 239.292 279.542Z" fill="#263238"/>
<path d="M160.557 313.796C160.575 313.841 160.225 313.965 159.709 314.352C159.199 314.732 158.533 315.44 158.159 316.517C157.778 317.568 157.776 319.062 158.715 320.234C159.597 321.392 161.298 322.21 162.957 321.829C164.611 321.421 165.76 319.924 166.025 318.492C166.335 317.022 165.659 315.69 164.845 314.924C164.025 314.131 163.111 313.8 162.485 313.691C161.85 313.578 161.482 313.625 161.478 313.577C161.472 313.555 161.836 313.436 162.513 313.49C163.179 313.542 164.177 313.834 165.097 314.655C165.549 315.065 165.981 315.605 166.261 316.282C166.535 316.957 166.652 317.768 166.498 318.579C166.224 320.182 164.98 321.859 163.079 322.336C161.167 322.767 159.301 321.831 158.334 320.525C157.83 319.871 157.569 319.094 157.509 318.368C157.454 317.638 157.595 316.961 157.814 316.391C158.265 315.243 159.024 314.533 159.595 314.186C160.174 313.831 160.552 313.774 160.557 313.796Z" fill="#263238"/>
<path d="M156.342 339.707C156.282 339.721 155.918 338.611 155.583 336.75C155.264 334.905 154.975 332.218 155.74 329.372C156.521 326.518 158.396 324.392 160.051 323.431C160.877 322.939 161.621 322.683 162.145 322.582C162.668 322.477 162.964 322.476 162.968 322.505C162.997 322.611 161.789 322.712 160.249 323.742C158.72 324.737 156.987 326.793 156.242 329.511C155.508 332.237 155.723 334.857 155.947 336.697C156.185 338.548 156.422 339.689 156.342 339.707Z" fill="#263238"/>
<path d="M159.984 298.35C160.056 298.417 159.265 299.107 158.51 300.555C157.754 301.971 157.125 304.263 157.67 306.68C158.228 309.095 159.789 310.887 161.085 311.835C162.394 312.812 163.405 313.09 163.369 313.182C163.36 313.212 163.102 313.173 162.655 313.027C162.207 312.883 161.579 312.602 160.872 312.135C159.468 311.227 157.759 309.373 157.162 306.796C156.581 304.216 157.317 301.804 158.188 300.377C158.622 299.649 159.067 299.124 159.407 298.8C159.747 298.474 159.963 298.327 159.984 298.35Z" fill="#263238"/>
<path d="M159.068 318.368C159.077 318.53 156.549 318.597 153.645 319.589C150.73 320.553 148.676 322.027 148.585 321.892C148.495 321.803 150.47 320.094 153.479 319.095C156.479 318.074 159.086 318.243 159.068 318.368Z" fill="#263238"/>
<g opacity="0.3">
<path d="M126.757 379.339C136.33 386.74 148.676 390.463 160.745 389.589C158.218 401.345 155.691 413.101 153.164 424.856C152.49 427.993 151.866 431.481 153.505 434.24C155.803 438.107 161.151 438.493 165.649 438.431C170.657 438.362 175.877 438.242 180.316 435.923C186.607 432.637 189.983 425.684 192.424 419.019C194.865 412.354 196.97 405.222 201.993 400.208C207.685 406.732 215.626 411.255 224.141 412.823C226.647 413.284 229.479 413.422 231.488 411.854C233.482 410.298 234.055 407.431 233.547 404.954C233.039 402.477 231.642 400.287 230.272 398.161C225.394 390.593 220.517 383.026 215.639 375.458C213.659 372.386 211.492 369.151 208.144 367.686C205.518 366.537 202.535 366.651 199.674 366.818C175.788 368.207 152.031 371.8 128.803 377.535" fill="black"/>
</g>
<g opacity="0.3">
<path d="M204.972 266.803C199.052 282.442 176.95 286.028 169.188 300.84C161.514 315.485 171.028 334.882 163.122 349.404C160.194 354.782 155.168 358.795 152.308 364.209C150.382 367.855 149.389 372.186 146.282 374.897C142.662 378.055 137.055 377.993 132.706 375.953C128.357 373.913 125.009 370.254 121.912 366.582C116.108 359.7 110.659 352.26 107.948 343.676C103.281 328.9 107.558 312.195 116.921 299.849C126.284 287.503 140.191 279.18 154.862 274.195C169.534 269.21 185.057 267.319 200.485 265.873" fill="black"/>
</g>
<path d="M133.87 225.674C136.167 222.252 139.163 219.224 142.838 217.359C146.513 215.494 150.908 214.875 154.826 216.155C158.744 217.434 162.052 220.753 162.85 224.796C163.483 228.001 162.63 231.582 164.285 234.398C166.19 237.639 170.78 238.665 172.391 242.061C173.361 244.107 172.973 246.592 171.908 248.59C170.843 250.588 169.179 252.191 167.515 253.726C168.522 254.441 169.545 255.18 170.255 256.191C170.964 257.202 171.313 258.552 170.837 259.692C170.335 260.896 169.074 261.581 167.873 262.09C162.333 264.439 156.062 265.028 150.181 263.753C148.602 263.411 146.794 262.981 145.494 263.94" fill="#263238"/>
<path d="M173.905 237.537L170.672 247.335L192.539 259.741L170.555 260.453L172.199 278.279L214.542 267.885C214.542 267.885 217.082 250.616 173.905 237.537L170.868 236.823C169.767 236.564 168.864 235.781 168.451 234.728C168.125 233.898 167.511 233.213 166.72 232.8L163.114 230.918L163.139 233.779L165.122 236.11L164.805 241.641C164.636 244.086 166.262 246.294 168.648 246.857L170.673 247.335" fill="#B78876"/>
<path d="M126.01 272.941C125.145 272.941 117.069 274.902 112.454 280.783C107.839 286.665 101.151 308.716 101.151 308.716L118.168 311.657L125.506 330.094C125.506 330.094 168.951 324.401 166.644 322.113C164.337 319.826 159.591 316.296 159.591 316.296L169.608 282.99L181.632 276.51L177.588 259.868L153.411 263.136L126.01 272.941Z" fill="#FAFAFA"/>
<path d="M167.553 290.671C167.553 290.815 154.007 290.931 137.301 290.931C120.59 290.931 107.047 290.814 107.047 290.671C107.047 290.528 120.59 290.411 137.301 290.411C154.007 290.411 167.553 290.527 167.553 290.671Z" fill="#F30651"/>
<path d="M164.842 300.462C164.842 300.606 151.296 300.722 134.59 300.722C117.878 300.722 104.335 300.606 104.335 300.462C104.335 300.318 117.878 300.202 134.59 300.202C151.296 300.202 164.842 300.318 164.842 300.462Z" fill="#F30651"/>
<path d="M164.842 311.036C164.842 311.18 154.582 311.296 141.929 311.296C129.271 311.296 119.014 311.179 119.014 311.036C119.014 310.893 129.272 310.776 141.929 310.776C154.582 310.775 164.842 310.892 164.842 311.036Z" fill="#F30651"/>
<path d="M168.358 321.218C168.358 321.362 158.098 321.478 145.445 321.478C132.787 321.478 122.53 321.361 122.53 321.218C122.53 321.074 132.788 320.958 145.445 320.958C158.098 320.958 168.358 321.074 168.358 321.218Z" fill="#F30651"/>
<path d="M179.205 277.505C179.205 277.649 172.428 277.765 164.07 277.765C155.709 277.765 148.933 277.648 148.933 277.505C148.933 277.362 155.709 277.245 164.07 277.245C172.428 277.245 179.205 277.362 179.205 277.505Z" fill="#F30651"/>
<path d="M180.306 267.123C180.309 267.267 173.559 267.541 165.23 267.736C156.899 267.931 150.144 267.972 150.141 267.828C150.138 267.684 156.887 267.41 165.218 267.215C173.546 267.021 180.302 266.979 180.306 267.123Z" fill="#F30651"/>
<path d="M121.699 295.754C121.839 295.786 121.111 299.448 120.074 303.933C119.036 308.419 118.082 312.029 117.942 311.997C117.802 311.965 118.529 308.302 119.567 303.816C120.604 299.331 121.559 295.722 121.699 295.754Z" fill="#263238"/>
<path d="M168.994 420.61L156.33 460.544L171.597 462.076L185.936 427.384L168.994 420.61Z" fill="#B78876"/>
<path d="M180.164 446.541L172.892 464.572C172.892 464.572 188.777 478.019 187.758 481.482L152.291 468.638L162.469 440.078L180.164 446.541Z" fill="#455A64"/>
<path d="M162.482 459.064C161.728 459.003 160.974 459.603 160.882 460.354C160.79 461.105 161.394 461.877 162.147 461.951C162.9 462.025 163.827 461.332 163.834 460.576C163.841 459.819 163.083 458.952 162.334 459.06" fill="#E0E0E0"/>
<path d="M152.291 468.638L153.429 465.799L187.009 479.175C187.009 479.175 188.339 480.434 187.758 481.481L152.291 468.638Z" fill="#E0E0E0"/>
<path d="M173.533 464.6C173.465 464.771 172.57 464.536 171.516 464.784C170.455 465.005 169.745 465.596 169.61 465.47C169.462 465.379 170.096 464.437 171.377 464.158C172.655 463.869 173.627 464.455 173.533 464.6Z" fill="#263238"/>
<path d="M176.695 467.486C176.674 467.668 175.817 467.691 174.964 468.211C174.095 468.705 173.66 469.444 173.49 469.374C173.317 469.342 173.565 468.284 174.638 467.659C175.706 467.023 176.751 467.319 176.695 467.486Z" fill="#263238"/>
<path d="M177.196 472.703C177.025 472.683 177.098 471.73 177.886 470.943C178.669 470.15 179.621 470.071 179.642 470.242C179.688 470.42 178.978 470.738 178.341 471.395C177.688 472.036 177.374 472.749 177.196 472.703Z" fill="#263238"/>
<path d="M174.734 460.307C174.604 460.439 173.896 459.912 172.893 459.624C171.896 459.316 171.015 459.368 170.979 459.187C170.924 459.026 171.9 458.654 173.077 459.01C174.255 459.356 174.868 460.202 174.734 460.307Z" fill="#263238"/>
<path d="M176.134 456.642C176.11 456.714 175.387 456.573 174.361 455.99C173.851 455.699 173.274 455.288 172.709 454.746C172.427 454.475 172.149 454.171 171.885 453.835C171.759 453.671 171.604 453.495 171.5 453.223C171.373 452.973 171.431 452.474 171.754 452.273C172.034 452.066 172.398 452.065 172.656 452.152C172.92 452.238 173.113 452.368 173.289 452.485C173.649 452.724 173.972 452.989 174.256 453.264C174.822 453.818 175.231 454.407 175.505 454.932C176.052 455.992 176.098 456.741 176.027 456.753C175.928 456.782 175.724 456.095 175.114 455.162C174.81 454.698 174.394 454.181 173.853 453.696C173.582 453.455 173.279 453.222 172.947 453.012C172.607 452.777 172.288 452.659 172.132 452.791C172.074 452.842 172.06 452.866 172.099 453.004C172.144 453.135 172.26 453.289 172.383 453.452C172.623 453.77 172.874 454.062 173.127 454.328C173.635 454.859 174.15 455.283 174.606 455.608C175.519 456.26 176.171 456.549 176.134 456.642Z" fill="#263238"/>
<path d="M175.818 456.809C175.747 456.813 175.628 456.068 175.971 454.924C176.143 454.357 176.445 453.704 176.918 453.067C177.156 452.75 177.436 452.439 177.761 452.152C178.096 451.877 178.519 451.5 179.219 451.666C179.575 451.78 179.767 452.159 179.782 452.43C179.812 452.712 179.761 452.927 179.728 453.147C179.643 453.585 179.488 453.988 179.296 454.344C178.911 455.059 178.375 455.575 177.873 455.904C176.847 456.572 176.049 456.517 176.056 456.453C176.03 456.345 176.755 456.229 177.605 455.538C178.024 455.197 178.464 454.707 178.771 454.072C178.925 453.756 179.046 453.406 179.11 453.034C179.191 452.637 179.16 452.282 179.005 452.269C178.83 452.202 178.427 452.378 178.173 452.626C177.876 452.878 177.613 453.151 177.384 453.429C176.93 453.989 176.611 454.568 176.398 455.077C175.972 456.101 175.922 456.816 175.818 456.809Z" fill="#263238"/>
<path d="M217.043 383.019L235.941 415.867L251.401 405.95L232.423 372.602L217.043 383.019Z" fill="#B78876"/>
<path d="M246.068 396.564L255.83 413.378C255.83 413.378 276.199 409.102 278.306 412.034L246.385 432.133L230.1 406.559L246.068 396.564Z" fill="#455A64"/>
<path d="M245.088 418.209C244.577 418.767 244.587 419.73 245.123 420.264C245.659 420.798 246.639 420.796 247.16 420.247C247.681 419.698 247.704 418.541 247.111 418.071C246.518 417.6 245.368 417.666 244.994 418.324" fill="#E0E0E0"/>
<path d="M246.384 432.132L244.843 429.49L276.025 411.207C276.025 411.207 277.835 410.931 278.305 412.033L246.384 432.132Z" fill="#E0E0E0"/>
<path d="M256.245 412.889C256.338 413.048 255.603 413.61 255.152 414.594C254.675 415.566 254.705 416.49 254.522 416.519C254.359 416.579 254.005 415.501 254.572 414.319C255.129 413.133 256.189 412.725 256.245 412.889Z" fill="#263238"/>
<path d="M260.465 412.166C260.596 412.295 260.087 412.985 259.973 413.977C259.83 414.966 260.145 415.763 259.985 415.854C259.854 415.971 259.171 415.126 259.337 413.894C259.492 412.662 260.368 412.02 260.465 412.166Z" fill="#263238"/>
<path d="M264.89 414.976C264.769 415.098 264.062 414.456 263.925 413.351C263.78 412.246 264.303 411.447 264.451 411.535C264.62 411.608 264.435 412.364 264.562 413.27C264.666 414.178 265.035 414.863 264.89 414.976Z" fill="#263238"/>
<path d="M253.595 409.304C253.619 409.487 252.769 409.722 251.925 410.337C251.069 410.934 250.57 411.662 250.404 411.579C250.243 411.523 250.549 410.525 251.552 409.815C252.551 409.098 253.595 409.134 253.595 409.304Z" fill="#263238"/>
<path d="M251.563 405.949C251.605 406.012 251.05 406.496 249.959 406.947C249.416 407.171 248.738 407.374 247.963 407.486C247.576 407.542 247.165 407.575 246.738 407.577C246.531 407.575 246.297 407.59 246.019 407.505C245.744 407.451 245.386 407.1 245.425 406.721C245.434 406.373 245.657 406.085 245.884 405.935C246.114 405.779 246.335 405.707 246.536 405.64C246.946 405.502 247.353 405.411 247.745 405.355C248.53 405.248 249.246 405.287 249.828 405.394C251 405.614 251.62 406.037 251.585 406.1C251.547 406.196 250.879 405.935 249.769 405.843C249.216 405.798 248.552 405.809 247.837 405.937C247.48 406.003 247.111 406.099 246.741 406.232C246.347 406.356 246.058 406.535 246.066 406.74C246.071 406.817 246.081 406.843 246.214 406.897C246.345 406.942 246.538 406.945 246.742 406.948C247.14 406.954 247.525 406.936 247.89 406.899C248.621 406.825 249.272 406.678 249.808 406.518C250.884 406.199 251.513 405.862 251.563 405.949Z" fill="#263238"/>
<path d="M251.501 406.3C251.461 406.359 250.8 405.995 250.107 405.021C249.765 404.537 249.435 403.897 249.223 403.133C249.119 402.751 249.046 402.339 249.019 401.906C249.007 401.473 248.97 400.907 249.531 400.457C249.839 400.246 250.257 400.328 250.479 400.482C250.72 400.631 250.858 400.804 251.012 400.965C251.305 401.301 251.529 401.671 251.691 402.041C252.018 402.784 252.096 403.524 252.048 404.122C251.945 405.342 251.412 405.938 251.366 405.893C251.265 405.848 251.619 405.204 251.595 404.109C251.583 403.569 251.467 402.921 251.155 402.288C251 401.973 250.798 401.662 250.544 401.383C250.281 401.075 249.981 400.882 249.876 400.996C249.716 401.093 249.607 401.519 249.646 401.872C249.662 402.261 249.716 402.636 249.796 402.988C249.959 403.691 250.22 404.298 250.491 404.778C251.037 405.744 251.571 406.223 251.501 406.3Z" fill="#263238"/>
<path d="M160.788 378.387L197.899 353.151L221.309 398.721L242.596 387.203C242.596 387.203 218.082 327.429 209.282 325.499C204.351 324.418 147.816 335.216 147.816 335.216L141.499 332.04L125.507 330.095L124.485 332.681C118.835 346.982 119.48 363.003 126.262 376.803L127.04 378.387H160.788Z" fill="#263238"/>
<path d="M147.758 346.823C148.034 348.074 178.713 376.802 178.713 376.802L161.011 436.289L187.43 441.343L213.959 369.681L165.47 322.114L143.325 331.436L147.758 346.823Z" fill="#263238"/>
<path d="M197.9 353.15C197.981 353.269 189.738 359.015 179.492 365.983C169.242 372.953 160.87 378.506 160.789 378.387C160.708 378.268 168.949 372.523 179.199 365.553C189.445 358.585 197.819 353.031 197.9 353.15Z" fill="#455A64"/>
<path d="M216.949 390.233C216.918 390.251 216.601 389.76 216.053 388.857C215.5 387.957 214.739 386.632 213.81 384.989C211.964 381.696 209.504 377.097 206.899 371.962C204.29 366.826 202.007 362.139 200.394 358.727C199.588 357.021 198.947 355.635 198.517 354.671C198.087 353.707 197.867 353.166 197.899 353.15C197.932 353.134 198.213 353.646 198.7 354.583C199.219 355.604 199.901 356.946 200.725 358.566C202.463 362.011 204.79 366.625 207.363 371.727C209.967 376.859 212.373 381.48 214.134 384.814C214.987 386.418 215.693 387.747 216.23 388.758C216.723 389.691 216.98 390.215 216.949 390.233Z" fill="#455A64"/>
<path d="M184.262 366.182C184.389 366.249 183.118 369.103 181.423 372.556C179.727 376.01 178.247 378.761 178.116 378.701C177.985 378.641 179.256 375.787 180.956 372.326C182.654 368.867 184.135 366.115 184.262 366.182Z" fill="#455A64"/>
<path d="M101.152 308.716L95.1897 330.877C94.4187 333.744 94.7727 336.797 96.1807 339.41C98.6657 344.024 103.932 346.406 109.038 345.224L156.587 333.51L151.616 323.635L114.157 326.883L118.169 311.656L101.152 308.716Z" fill="#B78876"/>
<path d="M122.245 342.355L122.865 339.134L148.632 334.504L156.12 294.775L203.981 289.073L195.939 331.484L122.245 342.355Z" fill="#455A64"/>
<path d="M177.611 316.167C176.357 315.925 175.566 314.556 175.845 313.11C176.124 311.663 177.367 310.686 178.621 310.928C179.875 311.17 180.666 312.539 180.387 313.985C180.108 315.432 178.865 316.409 177.611 316.167Z" fill="#EBEBEB"/>
<path d="M129.247 228.419L129.337 231.292L130.414 274.3C130.539 279.293 134.931 283.162 140.276 282.987C145.674 282.81 150.011 278.58 149.968 273.534C149.923 268.238 149.972 262.662 149.972 262.662C149.972 262.662 156.781 261.45 158.091 252.532C158.742 248.097 158.436 240.842 157.993 234.913C157.594 229.577 152.838 225.646 147.524 226.271L129.247 228.419Z" fill="#B78876"/>
<path d="M154.546 239.872C154.574 240.475 154.087 240.995 153.459 241.036C152.831 241.077 152.299 240.623 152.27 240.021C152.242 239.418 152.728 238.897 153.356 238.856C153.984 238.814 154.518 239.269 154.546 239.872Z" fill="#263238"/>
<path d="M156.464 238.706C156.324 238.856 155.452 238.227 154.223 238.244C152.996 238.244 152.102 238.886 151.967 238.737C151.901 238.671 152.042 238.401 152.431 238.111C152.814 237.822 153.47 237.537 154.235 237.532C155 237.527 155.647 237.801 156.02 238.085C156.402 238.371 156.533 238.639 156.464 238.706Z" fill="#263238"/>
<path d="M142.421 240.314C142.449 240.917 141.962 241.437 141.334 241.479C140.706 241.52 140.174 241.066 140.145 240.463C140.117 239.861 140.604 239.339 141.231 239.298C141.86 239.257 142.393 239.712 142.421 240.314Z" fill="#263238"/>
<path d="M144.392 239.076C144.252 239.227 143.379 238.597 142.151 238.614C140.924 238.614 140.029 239.256 139.894 239.107C139.828 239.041 139.968 238.771 140.358 238.481C140.741 238.192 141.397 237.907 142.162 237.902C142.927 237.897 143.574 238.172 143.948 238.455C144.329 238.741 144.46 239.009 144.392 239.076Z" fill="#263238"/>
<path d="M148.956 248.134C148.949 248.064 149.712 247.924 150.947 247.751C151.26 247.715 151.556 247.649 151.607 247.434C151.678 247.207 151.543 246.87 151.387 246.507C151.083 245.751 150.765 244.959 150.432 244.129C149.104 240.743 148.139 237.958 148.276 237.906C148.413 237.854 149.6 240.555 150.928 243.941C151.248 244.776 151.554 245.572 151.845 246.333C151.968 246.688 152.177 247.09 152.022 247.562C151.94 247.797 151.712 247.97 151.511 248.027C151.311 248.091 151.134 248.096 150.979 248.107C149.734 248.189 148.961 248.204 148.956 248.134Z" fill="#263238"/>
<path d="M149.974 262.661C149.974 262.661 143.99 263.117 138.016 259.62C138.016 259.62 140.979 265.701 149.878 264.764L149.974 262.661Z" fill="#AA6550"/>
<path d="M144.886 237.053C144.749 237.381 143.532 237.166 142.084 237.273C140.634 237.351 139.454 237.719 139.276 237.411C139.197 237.264 139.414 236.959 139.899 236.658C140.379 236.357 141.136 236.085 142.004 236.028C142.872 235.973 143.658 236.147 144.172 236.385C144.691 236.623 144.945 236.897 144.886 237.053Z" fill="#263238"/>
<path d="M155.95 234.445C155.737 234.726 154.887 234.447 153.87 234.445C152.852 234.407 151.993 234.654 151.791 234.365C151.703 234.224 151.835 233.943 152.208 233.675C152.576 233.407 153.194 233.185 153.894 233.198C154.593 233.212 155.202 233.458 155.56 233.74C155.922 234.021 156.044 234.307 155.95 234.445Z" fill="#263238"/>
<path d="M148.821 252.583C148.474 252.687 148.101 252.563 147.752 252.473C147.403 252.371 147.073 252.281 146.796 252.189C146.518 252.097 146.2 251.973 145.859 251.846C145.525 251.71 145.152 251.586 144.936 251.296C144.724 251.018 144.767 250.537 145.247 250.11C145.706 249.69 146.632 249.395 147.615 249.718C148.596 250.045 149.163 250.835 149.28 251.446C149.41 252.075 149.157 252.486 148.821 252.583Z" fill="#AA6550"/>
<path d="M148.99 252.475C148.871 252.558 148.274 251.332 146.837 250.962C145.399 250.597 144.287 251.385 144.222 251.256C144.18 251.208 144.385 250.93 144.872 250.679C145.348 250.429 146.134 250.246 146.966 250.458C147.797 250.672 148.399 251.21 148.696 251.657C149.003 252.11 149.049 252.452 148.99 252.475Z" fill="#263238"/>
<path d="M139.544 222.617C142.39 226.856 141.668 233.121 137.931 236.601C135.803 238.583 132.636 240.129 132.42 243.029C132.18 246.241 135.901 248.644 135.906 251.865C135.912 255.176 132.091 257.286 131.348 260.513C130.75 263.111 132.302 265.716 134.101 267.682C135.9 269.649 138.064 271.394 139.144 273.831C140.335 276.518 139.998 279.694 138.84 282.396C137.683 285.098 135.779 287.406 133.813 289.592C131.158 288.637 128.382 288.02 125.573 287.759C125.749 286.697 125.926 285.635 126.102 284.573C126.163 285.809 125.127 286.888 123.952 287.276C122.777 287.664 121.499 287.514 120.277 287.322C116.531 286.732 112.841 285.784 109.275 284.494C110.797 282.969 112.347 281.406 113.295 279.471C114.243 277.536 114.498 275.126 113.406 273.268C112.528 271.774 110.908 270.814 110.1 269.281C108.888 266.983 109.886 264.06 111.609 262.115C113.332 260.17 115.664 258.891 117.713 257.292C119.761 255.693 121.643 253.53 121.808 250.936C122.022 247.571 119.3 244.505 119.634 241.149C120.014 237.328 124.055 234.992 125.642 231.495C126.79 228.964 126.636 225.842 128.398 223.693C129.703 222.102 131.871 221.385 133.925 221.492C135.98 221.599 137.935 222.441 139.688 223.518" fill="#263238"/>
<path d="M150.718 263.617C149.11 264.504 149.203 266.946 150.182 268.499C151.161 270.053 152.736 271.162 153.703 272.723C155.428 275.508 154.682 279.551 152.076 281.537L155.917 282.99L156.755 282.516L159.113 281.182L158.007 283.906H160.466C163.052 283.936 165.596 282.41 166.786 280.114C167.976 277.818 167.757 274.859 166.241 272.764C165.229 271.365 163.659 270.25 163.318 268.557C162.907 266.516 164.449 264.664 165.204 262.724C166.466 259.483 165.312 255.466 162.521 253.39" fill="#263238"/>
<path d="M74.9417 182.692C75.3907 182.908 75.6997 183.367 75.7007 183.898L75.6997 190.558C75.6997 190.977 75.5037 191.372 75.1697 191.624C74.8357 191.877 74.4027 191.959 73.9997 191.845C72.9427 191.547 71.7537 191.729 70.7397 192.345C69.8057 192.911 69.1577 193.777 68.9627 194.721C68.7667 195.661 69.0147 196.721 69.6427 197.631C70.3147 198.604 71.3397 199.285 72.3907 199.452C74.5367 199.793 76.9357 198.242 77.6287 196.064C77.8527 195.36 78.6047 194.972 79.3087 195.196C80.0237 195.426 80.4017 196.173 80.1777 196.876C79.0877 200.299 75.4057 202.64 71.9697 202.094C70.1887 201.81 68.5357 200.738 67.4417 199.151C66.4007 197.643 66.0007 195.831 66.3437 194.178C66.6897 192.511 67.7857 191.01 69.3517 190.06C70.4837 189.373 71.7627 189.023 73.0257 189.033L73.0247 183.9C73.0247 183.161 73.6237 182.563 74.3627 182.563C74.5707 182.561 74.7667 182.608 74.9417 182.692Z" fill="#F30651"/>
<path d="M73.1007 179.892C73.0857 179.288 73.5627 178.786 74.1667 178.77C74.7707 178.755 75.2727 179.232 75.2887 179.836C75.3037 180.44 74.8267 180.942 74.2227 180.958C73.6187 180.973 73.1157 180.496 73.1007 179.892Z" fill="#F30651"/>
<path d="M105.727 215.552C105.732 215.583 105.394 215.603 104.848 215.827C104.309 216.046 103.556 216.531 102.992 217.419C102.717 217.86 102.49 218.399 102.419 219.005C102.354 219.608 102.443 220.273 102.754 220.885C103.339 222.102 104.747 223.155 106.337 223.076C107.925 222.967 109.199 221.754 109.637 220.477C109.874 219.833 109.883 219.161 109.747 218.57C109.605 217.977 109.316 217.468 108.991 217.063C108.327 216.248 107.521 215.855 106.96 215.701C106.391 215.543 106.053 215.564 106.054 215.532C106.054 215.522 106.137 215.516 106.296 215.512C106.376 215.507 106.474 215.511 106.59 215.527C106.707 215.537 106.84 215.554 106.988 215.593C107.575 215.718 108.429 216.095 109.147 216.933C109.499 217.35 109.816 217.881 109.978 218.513C110.135 219.142 110.133 219.871 109.886 220.563C109.655 221.256 109.211 221.919 108.6 222.428C107.998 222.947 107.205 223.301 106.353 223.362C105.5 223.402 104.671 223.144 104.012 222.7C103.346 222.266 102.826 221.661 102.515 221C102.189 220.342 102.101 219.619 102.182 218.976C102.268 218.33 102.52 217.765 102.82 217.309C103.434 216.392 104.237 215.917 104.806 215.723C104.948 215.667 105.079 215.635 105.193 215.611C105.306 215.581 105.403 215.566 105.483 215.561C105.643 215.546 105.726 215.542 105.727 215.552Z" fill="#263238"/>
<path d="M115.456 225.224C115.46 225.251 115.248 225.271 114.91 225.417C114.576 225.56 114.111 225.867 113.766 226.42C113.42 226.957 113.234 227.796 113.629 228.561C113.992 229.31 114.864 229.958 115.837 229.909C116.81 229.843 117.6 229.097 117.871 228.31C118.173 227.504 117.889 226.693 117.482 226.201C117.074 225.692 116.576 225.442 116.227 225.34C115.874 225.235 115.661 225.241 115.662 225.214C115.66 225.202 115.874 225.157 116.255 225.232C116.629 225.306 117.176 225.54 117.638 226.072C117.865 226.337 118.069 226.675 118.175 227.08C118.278 227.483 118.278 227.952 118.121 228.397C117.83 229.278 116.972 230.116 115.854 230.196C114.735 230.248 113.785 229.517 113.391 228.677C113.183 228.254 113.127 227.788 113.182 227.376C113.239 226.962 113.403 226.602 113.596 226.312C113.992 225.729 114.507 225.432 114.87 225.315C115.238 225.193 115.456 225.212 115.456 225.224Z" fill="#263238"/>
<path d="M104.111 195.728C104.111 195.728 104.106 195.558 104.11 195.226C104.116 194.887 104.125 194.397 104.136 193.756C104.143 193.432 104.15 193.072 104.159 192.674C104.149 192.276 104.099 191.842 104.067 191.371C104.03 190.9 103.991 190.393 103.948 189.852C103.937 189.58 103.894 189.303 103.837 189.019C103.786 188.734 103.733 188.441 103.679 188.139C103.325 185.714 102.434 182.812 100.911 179.689C99.3726 176.578 97.0596 173.272 93.7836 170.362C93.3716 170.002 92.9546 169.637 92.5336 169.269C92.0916 168.927 91.6216 168.608 91.1596 168.27C90.9266 168.103 90.6936 167.935 90.4576 167.767C90.2236 167.596 89.9886 167.424 89.7296 167.287C89.2236 166.994 88.7126 166.697 88.1956 166.398C87.9366 166.25 87.6796 166.094 87.4156 165.95C87.1416 165.825 86.8656 165.699 86.5886 165.573C86.0346 165.32 85.4746 165.066 84.9106 164.808C84.3386 164.568 83.7346 164.395 83.1396 164.182C82.8406 164.08 82.5406 163.978 82.2386 163.875C82.0866 163.826 81.9376 163.767 81.7836 163.725L81.3146 163.616C80.0596 163.336 78.7976 162.974 77.4696 162.863C76.8096 162.788 76.1476 162.672 75.4756 162.629C74.8016 162.611 74.1216 162.593 73.4366 162.575C73.0946 162.572 72.7506 162.543 72.4066 162.561C72.0626 162.587 71.7176 162.612 71.3706 162.638C70.6786 162.698 69.9776 162.723 69.2806 162.812C67.8976 163.074 66.4726 163.24 65.0956 163.692C64.7476 163.79 64.3986 163.888 64.0486 163.986C63.8746 164.037 63.6966 164.08 63.5236 164.137L63.0136 164.336C62.3326 164.602 61.6466 164.869 60.9566 165.137C60.2816 165.438 59.6276 165.798 58.9566 166.129C58.6266 166.305 58.2786 166.451 57.9616 166.654L57.0056 167.26C55.6916 168.018 54.5176 169.004 53.2946 169.946C52.7326 170.475 52.1686 171.007 51.6016 171.541L51.1756 171.942C51.0426 172.084 50.9166 172.235 50.7866 172.381L50.0116 173.266L49.2326 174.155L48.5366 175.116L47.8406 176.084L47.4916 176.569C47.3856 176.738 47.2896 176.913 47.1876 177.085C46.7856 177.776 46.3826 178.47 45.9776 179.167C45.6426 179.9 45.3056 180.635 44.9676 181.374C43.7266 184.375 42.9336 187.603 42.6296 190.927C42.4136 194.259 42.6956 197.572 43.4556 200.73C43.6746 201.512 43.8926 202.291 44.1106 203.067C44.4026 203.818 44.6936 204.567 44.9836 205.312L45.2036 205.869L45.4736 206.403L46.0116 207.467L46.5506 208.525L47.1826 209.524L47.8116 210.519L48.1276 211.013L48.4866 211.475C48.9646 212.091 49.4396 212.704 49.9126 213.314C50.9746 214.434 51.9816 215.59 53.1626 216.544L54.0136 217.291C54.2946 217.541 54.6166 217.739 54.9156 217.964C55.5276 218.395 56.1166 218.852 56.7376 219.254C57.3776 219.626 58.0136 219.997 58.6456 220.365L59.1186 220.641C59.2806 220.724 59.4486 220.795 59.6136 220.872C59.9446 221.023 60.2736 221.174 60.6026 221.325C61.8936 221.986 63.2756 222.37 64.6006 222.844C65.2766 223.039 65.9646 223.174 66.6386 223.34C66.9766 223.419 67.3136 223.498 67.6496 223.577C67.9866 223.648 68.3316 223.673 68.6696 223.723C69.3486 223.811 70.0236 223.899 70.6926 223.986C71.3636 224.048 72.0356 224.036 72.6996 224.064C74.0296 224.16 75.3326 223.998 76.6156 223.916L77.0956 223.881C77.2546 223.863 77.4106 223.828 77.5686 223.803C77.8826 223.748 78.1956 223.694 78.5066 223.639C79.1266 223.521 79.7506 223.444 80.3526 223.295C80.9506 223.128 81.5426 222.963 82.1296 222.8C82.4226 222.718 82.7146 222.637 83.0056 222.556C83.2876 222.448 83.5676 222.341 83.8456 222.234C84.4026 222.018 84.9536 221.805 85.4986 221.593C85.7756 221.498 86.0346 221.364 86.2926 221.232C86.5506 221.102 86.8086 220.972 87.0636 220.843C87.5726 220.581 88.0856 220.34 88.5756 220.07C89.0496 219.771 89.5176 219.476 89.9806 219.184C93.6686 216.817 96.4656 213.91 98.4666 211.075C98.7196 210.721 98.9766 210.379 99.2136 210.033C99.4256 209.671 99.6336 209.315 99.8376 208.966C100.042 208.617 100.242 208.275 100.439 207.939C100.534 207.77 100.64 207.608 100.724 207.438C100.804 207.265 100.882 207.094 100.96 206.925C101.272 206.248 101.57 205.6 101.855 204.982C102.122 204.357 102.301 203.733 102.511 203.158C102.611 202.868 102.709 202.587 102.803 202.314C102.904 202.042 102.989 201.775 103.042 201.508C103.168 200.98 103.285 200.485 103.395 200.026C103.5 199.566 103.617 199.145 103.688 198.753C103.742 198.359 103.79 198.001 103.833 197.68C103.921 197.045 103.989 196.559 104.035 196.224C104.079 195.896 104.111 195.728 104.111 195.728C104.111 195.728 104.099 195.897 104.062 196.226C104.022 196.563 103.964 197.05 103.888 197.687C103.848 198.009 103.804 198.368 103.756 198.764C103.689 199.157 103.576 199.58 103.476 200.043C103.37 200.505 103.257 201.002 103.135 201.533C103.084 201.802 103 202.07 102.901 202.343C102.808 202.618 102.713 202.901 102.614 203.193C102.407 203.772 102.231 204.4 101.967 205.029C101.685 205.651 101.389 206.303 101.08 206.985C101.003 207.156 100.924 207.328 100.845 207.502C100.761 207.674 100.656 207.837 100.561 208.007C100.366 208.345 100.166 208.69 99.9626 209.042C99.7596 209.394 99.5516 209.752 99.3406 210.117C99.1046 210.466 98.8476 210.811 98.5946 211.168C96.5956 214.026 93.7916 216.962 90.0876 219.355C89.6226 219.65 89.1516 219.949 88.6766 220.251C88.1846 220.524 87.6686 220.769 87.1566 221.034C86.8996 221.164 86.6406 221.296 86.3806 221.427C86.1216 221.561 85.8616 221.696 85.5826 221.793C85.0336 222.007 84.4796 222.224 83.9186 222.443C83.6376 222.551 83.3586 222.666 83.0726 222.769C82.7806 222.851 82.4866 222.934 82.1906 223.017C81.5996 223.183 81.0036 223.351 80.4016 223.52C79.7956 223.671 79.1676 223.751 78.5426 223.871C78.2286 223.926 77.9136 223.982 77.5976 224.038C77.4386 224.064 77.2816 224.099 77.1216 224.117L76.6376 224.153C75.3446 224.238 74.0316 224.403 72.6916 224.309C72.0226 224.281 71.3456 224.295 70.6686 224.233C69.9936 224.146 69.3136 224.059 68.6296 223.972C68.2886 223.922 67.9406 223.897 67.6006 223.826C67.2616 223.747 66.9216 223.668 66.5806 223.589C65.9006 223.422 65.2066 223.288 64.5246 223.092C63.1866 222.617 61.7926 222.23 60.4896 221.566C60.1576 221.415 59.8256 221.263 59.4916 221.11C59.3256 221.032 59.1556 220.961 58.9926 220.878L58.5146 220.6C57.8766 220.229 57.2346 219.856 56.5886 219.481C55.9626 219.076 55.3666 218.616 54.7496 218.182C54.4486 217.955 54.1236 217.756 53.8396 217.504L52.9806 216.752C51.7886 215.791 50.7706 214.626 49.6996 213.496C49.2216 212.881 48.7416 212.262 48.2596 211.641L47.8976 211.174L47.5786 210.676L46.9426 209.673L46.3046 208.665L45.7596 207.598L45.2166 206.524L44.9446 205.985L44.7226 205.423C44.4296 204.671 44.1356 203.916 43.8406 203.157C43.6206 202.374 43.3996 201.587 43.1786 200.798C42.4106 197.611 42.1256 194.266 42.3436 190.904C42.6496 187.549 43.4516 184.291 44.7046 181.263C45.0456 180.518 45.3856 179.776 45.7246 179.036C46.1336 178.333 46.5406 177.633 46.9466 176.935C47.0496 176.762 47.1466 176.585 47.2536 176.415L47.6066 175.925L48.3096 174.949L49.0136 173.98L49.8006 173.083L50.5836 172.19C50.7146 172.043 50.8416 171.891 50.9766 171.748L51.4066 171.343C51.9796 170.804 52.5496 170.268 53.1166 169.735C54.3506 168.785 55.5366 167.793 56.8626 167.028L57.8276 166.418C58.1476 166.213 58.4986 166.067 58.8316 165.889C59.5086 165.556 60.1686 165.193 60.8496 164.891C61.5456 164.621 62.2376 164.352 62.9256 164.085L63.4406 163.885C63.6156 163.828 63.7936 163.784 63.9696 163.733C64.3226 163.634 64.6746 163.536 65.0256 163.438C66.4156 162.984 67.8526 162.818 69.2476 162.556C69.9516 162.468 70.6586 162.443 71.3556 162.384C71.7046 162.359 72.0526 162.333 72.3996 162.308C72.7466 162.29 73.0937 162.32 73.4387 162.323C74.1287 162.343 74.8136 162.362 75.4936 162.381C76.1716 162.425 76.8386 162.543 77.5036 162.62C78.8426 162.735 80.1136 163.102 81.3776 163.386L81.8496 163.497C82.0046 163.54 82.1546 163.599 82.3076 163.649C82.6116 163.753 82.9136 163.857 83.2146 163.96C83.8136 164.176 84.4216 164.352 84.9966 164.595C85.5646 164.856 86.1276 165.114 86.6856 165.369C86.9646 165.497 87.2416 165.624 87.5176 165.751C87.7836 165.896 88.0426 166.054 88.3026 166.204C88.8226 166.507 89.3366 166.807 89.8456 167.104C90.1056 167.243 90.3426 167.416 90.5776 167.589C90.8136 167.76 91.0486 167.929 91.2826 168.098C91.7476 168.439 92.2186 168.761 92.6636 169.107C93.0866 169.479 93.5056 169.847 93.9186 170.211C97.2076 173.15 99.5216 176.484 101.055 179.618C102.572 182.764 103.451 185.684 103.789 188.12C103.841 188.423 103.892 188.718 103.941 189.004C103.996 189.289 104.037 189.568 104.046 189.841C104.084 190.385 104.119 190.893 104.152 191.366C104.18 191.838 104.225 192.274 104.231 192.673C104.218 193.072 104.205 193.434 104.194 193.758C104.17 194.399 104.152 194.89 104.14 195.229C104.125 195.559 104.111 195.728 104.111 195.728Z" fill="#263238"/>
<path d="M444.902 47.5177H238.457V360.904H444.902V47.5177Z" fill="white"/>
<path d="M444.536 63.4808H238.029V198.351H444.536V63.4808Z" fill="#F5F5F5"/>
<path d="M288.486 217.363V220.431H292.899V221.512H288.486V225.07H287.229V216.269H293.44V217.363H288.486Z" fill="#263238"/>
<path d="M294.208 221.739C294.208 219.753 295.679 218.344 297.678 218.344C299.677 218.344 301.136 219.752 301.136 221.739C301.136 223.726 299.677 225.147 297.678 225.147C295.679 225.146 294.208 223.725 294.208 221.739ZM299.916 221.739C299.916 220.319 298.961 219.401 297.678 219.401C296.396 219.401 295.428 220.319 295.428 221.739C295.428 223.16 296.396 224.09 297.678 224.09C298.961 224.09 299.916 223.16 299.916 221.739Z" fill="#263238"/>
<path d="M306.392 218.344V219.513C306.291 219.5 306.204 219.5 306.116 219.5C304.821 219.5 304.016 220.292 304.016 221.751V225.07H302.809V218.407H303.965V219.526C304.393 218.747 305.223 218.344 306.392 218.344Z" fill="#263238"/>
<path d="M314.188 218.407V224.165C314.188 226.516 312.994 227.585 310.731 227.585C309.511 227.585 308.279 227.246 307.549 226.592L308.127 225.661C308.743 226.189 309.712 226.529 310.692 226.529C312.263 226.529 312.98 225.8 312.98 224.291V223.763C312.402 224.454 311.535 224.794 310.579 224.794C308.655 224.794 307.197 223.486 307.197 221.563C307.197 219.639 308.655 218.344 310.579 218.344C311.572 218.344 312.477 218.709 313.044 219.438V218.407H314.188ZM313.006 221.563C313.006 220.268 312.051 219.4 310.718 219.4C309.372 219.4 308.417 220.267 308.417 221.563C308.417 222.845 309.372 223.738 310.718 223.738C312.051 223.738 313.006 222.845 313.006 221.563Z" fill="#263238"/>
<path d="M315.873 221.739C315.873 219.753 317.344 218.344 319.343 218.344C321.342 218.344 322.801 219.752 322.801 221.739C322.801 223.726 321.342 225.147 319.343 225.147C317.344 225.146 315.873 223.725 315.873 221.739ZM321.581 221.739C321.581 220.319 320.625 219.401 319.343 219.401C318.061 219.401 317.093 220.319 317.093 221.739C317.093 223.16 318.061 224.09 319.343 224.09C320.625 224.09 321.581 223.16 321.581 221.739Z" fill="#263238"/>
<path d="M328.221 224.681C327.857 224.995 327.303 225.146 326.763 225.146C325.417 225.146 324.651 224.404 324.651 223.059V219.4H323.519V218.407H324.651V216.948H325.858V218.407H327.769V219.4H325.858V223.008C325.858 223.725 326.235 224.127 326.901 224.127C327.254 224.127 327.593 224.014 327.844 223.813L328.221 224.681Z" fill="#263238"/>
<path d="M339.965 221.739C339.965 223.788 338.544 225.147 336.596 225.147C335.653 225.147 334.823 224.782 334.27 224.065V227.51H333.063V218.407H334.219V219.463C334.76 218.721 335.615 218.344 336.596 218.344C338.544 218.344 339.965 219.702 339.965 221.739ZM338.745 221.739C338.745 220.331 337.777 219.401 336.494 219.401C335.224 219.401 334.257 220.331 334.257 221.739C334.257 223.16 335.225 224.09 336.494 224.09C337.778 224.09 338.745 223.16 338.745 221.739Z" fill="#263238"/>
<path d="M346.857 221.047V225.07H345.714V224.19C345.312 224.794 344.569 225.146 343.525 225.146C342.016 225.146 341.061 224.341 341.061 223.184C341.061 222.116 341.752 221.235 343.739 221.235H345.65V220.996C345.65 219.978 345.059 219.387 343.865 219.387C343.073 219.387 342.268 219.663 341.753 220.104L341.25 219.199C341.941 218.646 342.935 218.344 344.003 218.344C345.826 218.344 346.857 219.224 346.857 221.047ZM345.65 223.034V222.103H343.79C342.595 222.103 342.256 222.568 342.256 223.134C342.256 223.8 342.809 224.215 343.727 224.215C344.631 224.216 345.348 223.801 345.65 223.034Z" fill="#263238"/>
<path d="M348.253 224.367L348.756 223.411C349.321 223.813 350.227 224.102 351.095 224.102C352.214 224.102 352.679 223.763 352.679 223.197C352.679 221.701 348.467 222.996 348.467 220.343C348.467 219.149 349.535 218.344 351.245 218.344C352.113 218.344 353.094 218.57 353.672 218.948L353.156 219.904C352.553 219.514 351.886 219.376 351.232 219.376C350.176 219.376 349.661 219.766 349.661 220.294C349.661 221.866 353.886 220.583 353.886 223.173C353.886 224.38 352.78 225.147 351.007 225.147C349.901 225.146 348.807 224.807 348.253 224.367Z" fill="#263238"/>
<path d="M354.553 224.367L355.056 223.411C355.621 223.813 356.527 224.102 357.395 224.102C358.514 224.102 358.979 223.763 358.979 223.197C358.979 221.701 354.767 222.996 354.767 220.343C354.767 219.149 355.835 218.344 357.545 218.344C358.413 218.344 359.394 218.57 359.972 218.948L359.456 219.904C358.852 219.514 358.186 219.376 357.532 219.376C356.476 219.376 355.961 219.766 355.961 220.294C355.961 221.866 360.186 220.583 360.186 223.173C360.186 224.38 359.08 225.147 357.307 225.147C356.201 225.146 355.106 224.807 354.553 224.367Z" fill="#263238"/>
<path d="M371.653 218.407L369.164 225.07H368.008L366.084 220.016L364.135 225.07H362.979L360.502 218.407H361.646L363.583 223.713L365.595 218.407H366.614L368.588 223.738L370.574 218.407H371.653Z" fill="#263238"/>
<path d="M372.07 221.739C372.07 219.753 373.541 218.344 375.54 218.344C377.539 218.344 378.998 219.752 378.998 221.739C378.998 223.726 377.539 225.147 375.54 225.147C373.54 225.146 372.07 223.725 372.07 221.739ZM377.778 221.739C377.778 220.319 376.823 219.401 375.54 219.401C374.258 219.401 373.29 220.319 373.29 221.739C373.29 223.16 374.258 224.09 375.54 224.09C376.823 224.09 377.778 223.16 377.778 221.739Z" fill="#263238"/>
<path d="M384.253 218.344V219.513C384.152 219.5 384.064 219.5 383.977 219.5C382.682 219.5 381.877 220.292 381.877 221.751V225.07H380.67V218.407H381.826V219.526C382.254 218.747 383.084 218.344 384.253 218.344Z" fill="#263238"/>
<path d="M391.961 215.741V225.07H390.805V224.014C390.264 224.768 389.408 225.146 388.428 225.146C386.48 225.146 385.059 223.775 385.059 221.738C385.059 219.701 386.48 218.343 388.428 218.343C389.371 218.343 390.201 218.695 390.754 219.412V215.74L391.961 215.741ZM390.767 221.739C390.767 220.319 389.799 219.401 388.529 219.401C387.247 219.401 386.279 220.319 386.279 221.739C386.279 223.16 387.247 224.09 388.529 224.09C389.799 224.09 390.767 223.16 390.767 221.739Z" fill="#263238"/>
<path d="M398.186 218.596C398.186 217.791 397.52 217.238 396.388 217.238C395.369 217.238 394.641 217.59 394.138 218.231L393.22 217.577C393.911 216.684 395.005 216.169 396.477 216.169C398.287 216.169 399.456 217.011 399.456 218.407C399.456 220.507 397.23 220.645 397.23 222.292H395.972C395.973 220.318 398.186 220.041 398.186 218.596ZM395.797 224.342C395.797 223.889 396.137 223.537 396.614 223.537C397.08 223.537 397.419 223.889 397.419 224.342C397.419 224.782 397.08 225.147 396.614 225.147C396.137 225.146 395.797 224.782 395.797 224.342Z" fill="#263238"/>
<path d="M423.305 243.134C423.305 243.278 387.928 243.394 344.297 243.394C300.652 243.394 265.282 243.277 265.282 243.134C265.282 242.99 300.652 242.874 344.297 242.874C387.928 242.874 423.305 242.99 423.305 243.134Z" fill="black"/>
<path d="M389.578 251.578C389.578 251.722 369.302 251.838 344.295 251.838C319.28 251.838 299.008 251.721 299.008 251.578C299.008 251.434 319.28 251.318 344.295 251.318C369.302 251.318 389.578 251.434 389.578 251.578Z" fill="black"/>
<path d="M375.295 144.49C385.018 135.419 385.546 120.184 376.475 110.461C367.404 100.738 352.169 100.21 342.446 109.281C334.13 117.04 332.547 129.306 337.937 138.777L333.038 143.347L334.208 151.479L326.606 149.348L320.477 155.066L321.647 163.197L314.045 161.066L308.777 165.981L309.49 170.937L304.857 169.638L301.791 172.499L301.332 180.03L312.564 182.857L349.009 148.855C357.583 152.7 367.993 151.302 375.295 144.49ZM371.736 114.883C374.338 117.672 374.186 122.042 371.397 124.644C368.608 127.246 364.238 127.094 361.635 124.305C359.033 121.516 359.185 117.146 361.974 114.544C364.763 111.943 369.134 112.094 371.736 114.883Z" fill="#263238"/>
<path d="M371.736 114.883C371.692 114.928 371.285 114.462 370.364 113.896C369.459 113.341 367.927 112.727 366.018 112.942C364.144 113.118 361.916 114.321 360.788 116.583C359.625 118.778 359.848 121.987 361.856 124.101C363.826 126.252 367.012 126.697 369.283 125.689C371.618 124.72 372.972 122.58 373.278 120.723C373.624 118.833 373.117 117.262 372.627 116.321C372.124 115.363 371.687 114.924 371.736 114.883C371.751 114.869 371.864 114.971 372.067 115.182C372.274 115.388 372.546 115.728 372.831 116.207C373.401 117.144 374.007 118.773 373.696 120.794C373.427 122.777 372.019 125.118 369.499 126.198C368.267 126.74 366.795 126.944 365.348 126.664C363.896 126.412 362.49 125.645 361.415 124.511C360.359 123.36 359.692 121.905 359.541 120.439C359.362 118.977 359.668 117.523 360.293 116.332C361.545 113.894 363.977 112.651 365.974 112.52C368.011 112.349 369.594 113.067 370.49 113.701C370.948 114.018 371.269 114.314 371.46 114.534C371.657 114.75 371.751 114.869 371.736 114.883Z" fill="#263238"/>
<path d="M375.295 144.49C375.295 144.49 375.184 144.608 374.949 144.823C374.695 145.049 374.345 145.362 373.889 145.768C372.898 146.528 371.417 147.677 369.229 148.73C367.052 149.774 364.171 150.739 360.673 151.029C357.191 151.29 353.068 150.845 348.935 149.021L349.133 148.988C339.739 157.784 327.242 169.484 312.749 183.055L312.642 183.156L312.499 183.12C308.973 182.236 305.163 181.281 301.264 180.304L301.037 180.247L301.051 180.013C301.192 177.665 301.347 175.091 301.504 172.482L301.511 172.368L301.595 172.289C302.546 171.4 303.599 170.417 304.659 169.426L304.778 169.315L304.935 169.359C306.378 169.763 307.968 170.207 309.569 170.655L309.2 170.979C308.977 169.432 308.731 167.734 308.484 166.024L308.462 165.871L308.575 165.766C310.23 164.221 312.028 162.542 313.841 160.849L313.963 160.735L314.124 160.78C316.524 161.452 319.114 162.177 321.726 162.909L321.348 163.24C320.977 160.663 320.578 157.896 320.177 155.109L320.155 154.953L320.27 154.846C320.783 154.368 321.338 153.849 321.895 153.33C323.405 151.921 324.908 150.519 326.4 149.128L326.524 149.013L326.687 149.059C329.243 149.776 331.777 150.487 334.289 151.191L333.912 151.521C333.519 148.783 333.129 146.071 332.744 143.389L332.722 143.235L332.835 143.129C334.485 141.591 336.119 140.068 337.735 138.561L337.68 138.921C335.783 135.512 334.691 131.729 334.55 127.959C334.472 126.079 334.584 124.201 334.949 122.388C335.262 120.564 335.845 118.815 336.552 117.152C339.44 110.464 345.268 105.649 351.519 103.712C357.804 101.717 364.395 102.516 369.542 105.074C374.767 107.595 378.468 111.834 380.624 116.145C382.731 120.524 383.347 124.997 382.992 128.782C382.679 132.587 381.539 135.72 380.291 138.052C380.137 138.346 379.988 138.632 379.843 138.909C379.673 139.172 379.508 139.426 379.348 139.673C379.021 140.16 378.748 140.638 378.435 141.039C377.785 141.822 377.286 142.525 376.796 143.014C376.317 143.492 375.948 143.86 375.683 144.125C375.433 144.374 375.295 144.49 375.295 144.49C375.295 144.49 375.408 144.347 375.647 144.088C375.903 143.815 376.257 143.437 376.719 142.944C377.195 142.445 377.678 141.735 378.31 140.948C378.614 140.545 378.878 140.065 379.196 139.578C379.351 139.331 379.512 139.077 379.677 138.814C379.817 138.537 379.962 138.252 380.11 137.958C381.319 135.631 382.417 132.52 382.697 128.759C383.02 125.017 382.381 120.613 380.285 116.314C378.139 112.083 374.481 107.933 369.345 105.481C364.285 102.991 357.822 102.232 351.675 104.201C345.562 106.113 339.873 110.837 337.064 117.376C336.376 119.003 335.808 120.712 335.507 122.494C335.153 124.265 335.046 126.099 335.125 127.935C335.268 131.617 336.338 135.307 338.192 138.632L338.305 138.835L338.137 138.992C336.522 140.5 334.889 142.025 333.24 143.564L333.331 143.305C333.718 145.986 334.109 148.698 334.504 151.436L334.569 151.891L334.127 151.767C331.615 151.063 329.081 150.353 326.525 149.637L326.811 149.567C325.319 150.959 323.817 152.361 322.307 153.77C321.75 154.289 321.195 154.807 320.682 155.286L320.774 155.024C321.175 157.811 321.573 160.578 321.943 163.155L322.009 163.611L321.566 163.487C318.954 162.754 316.364 162.027 313.965 161.354L314.248 161.285C312.433 162.977 310.634 164.654 308.978 166.198L309.069 165.94C309.314 167.65 309.558 169.348 309.78 170.896L309.844 171.341L309.411 171.219C307.811 170.769 306.222 170.323 304.779 169.918L305.055 169.851C303.994 170.84 302.939 171.822 301.987 172.71L302.078 172.518C301.917 175.126 301.758 177.7 301.613 180.048L301.401 179.758C305.298 180.743 309.106 181.705 312.63 182.595L312.38 182.659C326.922 169.141 339.46 157.485 348.886 148.723L348.974 148.641L349.084 148.69C353.144 150.509 357.209 150.977 360.652 150.747C364.112 150.488 366.973 149.562 369.145 148.554C371.327 147.537 372.818 146.422 373.826 145.69C374.295 145.301 374.654 145.002 374.915 144.785C375.161 144.584 375.295 144.49 375.295 144.49Z" fill="#263238"/>
<path d="M374.488 141.758C384.211 132.687 384.739 117.452 375.668 107.729C366.597 98.0057 351.362 97.4777 341.639 106.549C333.323 114.308 331.74 126.574 337.13 136.045L337.123 136.051L332.231 140.615L333.401 148.746L325.799 146.615L319.67 152.333L320.84 160.464L313.238 158.333L307.97 163.248L308.683 168.204L304.05 166.905L300.984 169.766L300.525 177.297L311.757 180.124L348.202 146.122C356.776 149.967 367.187 148.57 374.488 141.758ZM370.929 112.151C373.531 114.94 373.379 119.311 370.59 121.913C367.801 124.515 363.431 124.364 360.828 121.574C358.226 118.785 358.377 114.415 361.167 111.813C363.956 109.21 368.327 109.362 370.929 112.151Z" fill="#F30651"/>
<path d="M370.929 112.151C370.885 112.196 370.478 111.73 369.557 111.164C368.652 110.609 367.12 109.996 365.21 110.21C363.336 110.386 361.108 111.589 359.98 113.851C358.817 116.046 359.04 119.255 361.048 121.369C363.018 123.52 366.204 123.965 368.475 122.956C370.81 121.988 372.164 119.848 372.47 117.99C372.816 116.1 372.31 114.529 371.819 113.588C371.317 112.63 370.881 112.191 370.929 112.151C370.944 112.137 371.057 112.239 371.26 112.45C371.467 112.656 371.739 112.996 372.024 113.475C372.594 114.412 373.2 116.041 372.889 118.062C372.62 120.045 371.212 122.386 368.692 123.466C367.46 124.007 365.988 124.212 364.541 123.932C363.089 123.679 361.683 122.913 360.608 121.779C359.552 120.628 358.885 119.173 358.734 117.707C358.555 116.245 358.861 114.791 359.486 113.599C360.738 111.16 363.17 109.918 365.167 109.787C367.204 109.617 368.787 110.334 369.683 110.968C370.141 111.286 370.462 111.581 370.653 111.801C370.85 112.017 370.944 112.136 370.929 112.151Z" fill="#263238"/>
<path d="M374.488 141.758C374.488 141.758 374.377 141.876 374.142 142.091C373.888 142.317 373.538 142.629 373.082 143.036C372.091 143.796 370.609 144.945 368.422 145.998C366.245 147.042 363.364 148.007 359.866 148.298C356.384 148.559 352.261 148.114 348.128 146.29L348.326 146.257C338.932 155.053 326.435 166.753 311.942 180.324L311.835 180.425L311.692 180.389C308.166 179.505 304.356 178.55 300.457 177.573L300.23 177.516L300.244 177.282C300.385 174.934 300.54 172.359 300.697 169.751L300.704 169.637L300.788 169.559C301.739 168.67 302.792 167.687 303.852 166.696L303.971 166.585L304.128 166.629C305.571 167.033 307.161 167.477 308.761 167.925L308.392 168.249C308.169 166.702 307.923 165.004 307.676 163.294L307.654 163.141L307.767 163.036C309.422 161.491 311.22 159.812 313.033 158.119L313.155 158.005L313.316 158.05C315.716 158.722 318.306 159.448 320.918 160.179L320.54 160.51C320.169 157.933 319.77 155.166 319.369 152.379L319.347 152.223L319.462 152.116C319.975 151.638 320.53 151.12 321.087 150.6C322.597 149.191 324.1 147.789 325.592 146.398L325.716 146.283L325.879 146.329C328.435 147.046 330.969 147.757 333.481 148.461L333.104 148.792C332.711 146.054 332.321 143.342 331.936 140.66L331.914 140.506L332.027 140.4C333.677 138.862 335.311 137.339 336.927 135.832L336.872 136.192C334.975 132.783 333.883 129 333.742 125.23C333.664 123.35 333.776 121.472 334.141 119.659C334.454 117.836 335.037 116.087 335.744 114.423C338.632 107.734 344.46 102.92 350.711 100.983C356.996 98.9877 363.587 99.7867 368.734 102.345C373.959 104.866 377.66 109.105 379.816 113.416C381.922 117.796 382.539 122.268 382.183 126.053C381.87 129.858 380.73 132.991 379.482 135.323C379.328 135.617 379.179 135.903 379.034 136.18C378.864 136.442 378.699 136.697 378.539 136.944C378.212 137.431 377.939 137.909 377.626 138.31C376.976 139.093 376.477 139.796 375.987 140.285C375.508 140.763 375.139 141.131 374.874 141.396C374.626 141.641 374.488 141.758 374.488 141.758C374.488 141.758 374.601 141.615 374.84 141.356C375.096 141.083 375.45 140.705 375.912 140.213C376.388 139.714 376.871 139.004 377.503 138.217C377.807 137.814 378.071 137.334 378.389 136.847C378.544 136.6 378.705 136.346 378.87 136.083C379.01 135.806 379.155 135.521 379.303 135.227C380.512 132.9 381.61 129.789 381.89 126.028C382.213 122.287 381.574 117.882 379.478 113.583C377.332 109.352 373.674 105.202 368.538 102.75C363.478 100.26 357.015 99.5007 350.868 101.47C344.755 103.382 339.066 108.107 336.257 114.645C335.569 116.272 335.001 117.981 334.7 119.763C334.346 121.534 334.239 123.368 334.318 125.204C334.46 128.886 335.531 132.576 337.384 135.901L337.497 136.104L337.329 136.261C335.714 137.769 334.081 139.294 332.433 140.833L332.524 140.574C332.911 143.255 333.302 145.967 333.697 148.705L333.762 149.159L333.32 149.035C330.808 148.331 328.274 147.622 325.718 146.905L326.004 146.836C324.512 148.228 323.01 149.63 321.5 151.039C320.944 151.558 320.388 152.077 319.875 152.555L319.967 152.293C320.368 155.08 320.766 157.847 321.136 160.424L321.202 160.88L320.759 160.756C318.147 160.023 315.557 159.297 313.158 158.624L313.441 158.555C311.626 160.247 309.827 161.924 308.171 163.468L308.262 163.21C308.507 164.92 308.751 166.618 308.973 168.166L309.037 168.611L308.604 168.49C307.004 168.04 305.415 167.594 303.972 167.189L304.248 167.122C303.187 168.111 302.132 169.093 301.18 169.981L301.271 169.789C301.11 172.397 300.951 174.971 300.806 177.319L300.594 177.029C304.491 178.014 308.299 178.976 311.823 179.866L311.572 179.931C326.114 166.412 338.652 154.757 348.078 145.995L348.167 145.913L348.277 145.962C352.337 147.781 356.402 148.249 359.845 148.019C363.305 147.76 366.166 146.834 368.338 145.826C370.52 144.809 372.011 143.694 373.019 142.962C373.488 142.573 373.847 142.274 374.108 142.058C374.354 141.851 374.488 141.758 374.488 141.758Z" fill="#263238"/>
<path d="M372.278 139.88C372.196 139.808 373.687 138.618 375.512 135.801C376.444 134.41 377.323 132.533 377.987 130.259C378.638 127.983 378.989 125.255 378.675 122.287C378.353 119.336 377.414 116.114 375.501 113.174C373.588 110.265 370.865 107.508 367.324 105.77C365.587 104.853 363.653 104.21 361.632 103.848C360.625 103.625 359.585 103.58 358.54 103.491C357.491 103.509 356.43 103.488 355.371 103.648C351.115 104.101 346.91 106.042 343.568 109.102C340.281 112.224 338.053 116.285 337.305 120.5C337.072 121.546 337.019 122.606 336.928 123.651C336.945 124.7 336.917 125.741 337.07 126.761C337.291 128.803 337.799 130.777 338.593 132.574C340.081 136.227 342.643 139.134 345.413 141.245C348.215 143.357 351.364 144.518 354.285 145.043C357.224 145.562 359.97 145.401 362.285 144.909C364.6 144.404 366.534 143.656 367.985 142.823C370.922 141.197 372.212 139.793 372.278 139.88C372.285 139.888 372.203 139.97 372.036 140.124C371.841 140.298 371.593 140.52 371.283 140.798C370.956 141.101 370.536 141.457 369.991 141.815C369.459 142.191 368.855 142.641 368.099 143.027C366.648 143.9 364.702 144.692 362.357 145.236C360.012 145.767 357.218 145.963 354.214 145.461C351.229 144.953 348 143.791 345.117 141.646C342.267 139.504 339.627 136.536 338.083 132.791C337.261 130.949 336.732 128.923 336.499 126.826C336.34 125.779 336.364 124.709 336.346 123.631C336.435 122.557 336.489 121.467 336.726 120.391C337.487 116.057 339.776 111.871 343.158 108.662C346.594 105.513 350.926 103.52 355.302 103.062C356.391 102.901 357.482 102.922 358.559 102.908C359.633 103.001 360.702 103.051 361.735 103.282C363.811 103.66 365.794 104.328 367.575 105.275C371.204 107.075 373.981 109.914 375.921 112.905C377.861 115.929 378.797 119.231 379.098 122.244C379.391 125.275 379.002 128.048 378.31 130.352C377.605 132.654 376.68 134.541 375.708 135.928C375.27 136.655 374.78 137.227 374.368 137.731C373.973 138.25 373.588 138.644 373.264 138.949C372.965 139.239 372.727 139.472 372.539 139.654C372.373 139.811 372.285 139.887 372.278 139.88Z" fill="#263238"/>
<path d="M371.299 122.795C371.251 122.749 371.802 122.276 372.474 121.198C373.131 120.138 373.86 118.337 373.612 116.087C373.482 114.979 373.123 113.773 372.4 112.675C371.677 111.589 370.654 110.561 369.328 109.917C368.025 109.251 366.444 108.931 364.861 109.135C363.272 109.307 361.705 110.032 360.457 111.174C359.23 112.34 358.398 113.853 358.116 115.426C357.803 116.992 358.012 118.592 358.587 119.938C359.138 121.305 360.093 122.397 361.126 123.194C362.172 123.991 363.35 124.434 364.446 124.639C366.673 125.041 368.52 124.439 369.623 123.857C370.747 123.26 371.257 122.743 371.299 122.795C371.313 122.81 371.191 122.94 370.942 123.175C370.699 123.414 370.299 123.731 369.737 124.061C368.638 124.722 366.733 125.425 364.376 125.057C363.216 124.868 361.957 124.424 360.831 123.594C359.718 122.766 358.685 121.613 358.078 120.154C357.448 118.717 357.211 117.001 357.538 115.316C357.833 113.623 358.726 111.986 360.047 110.733C361.389 109.503 363.083 108.725 364.792 108.549C366.496 108.34 368.191 108.695 369.58 109.423C370.993 110.13 372.071 111.24 372.82 112.408C373.57 113.589 373.926 114.875 374.034 116.045C374.238 118.422 373.405 120.274 372.669 121.325C372.3 121.863 371.957 122.24 371.702 122.466C371.451 122.697 371.313 122.81 371.299 122.795Z" fill="#263238"/>
<path d="M308.814 178.792C308.701 178.671 316.907 170.83 327.142 161.281C337.38 151.729 345.769 144.087 345.882 144.208C345.995 144.329 337.79 152.168 327.552 161.72C317.318 171.269 308.927 178.913 308.814 178.792Z" fill="#263238"/>
<path d="M313.339 131.071L313.672 130.328L314.119 131.009C314.477 131.555 314.983 131.986 315.579 132.253L316.322 132.586L315.641 133.033C315.095 133.391 314.664 133.897 314.397 134.493L314.064 135.236L313.617 134.555C313.259 134.009 312.753 133.578 312.157 133.311L311.414 132.978L312.095 132.531C312.641 132.173 313.072 131.667 313.339 131.071Z" fill="#F30651"/>
<path d="M291.02 125.508L291.213 125.076L291.472 125.471C291.68 125.788 291.974 126.038 292.32 126.193L292.752 126.386L292.357 126.645C292.04 126.853 291.79 127.147 291.635 127.493L291.442 127.925L291.183 127.529C290.975 127.212 290.681 126.962 290.335 126.807L289.903 126.614L290.298 126.355C290.615 126.148 290.865 125.854 291.02 125.508Z" fill="#F30651"/>
<path d="M361.295 163.544L361.488 163.112L361.747 163.507C361.955 163.824 362.249 164.074 362.595 164.229L363.027 164.422L362.632 164.681C362.315 164.889 362.065 165.183 361.91 165.529L361.717 165.961L361.458 165.565C361.25 165.248 360.956 164.998 360.61 164.843L360.178 164.65L360.573 164.391C360.89 164.184 361.141 163.89 361.295 163.544Z" fill="#F30651"/>
<path d="M395.702 144.042L396.035 143.299L396.481 143.98C396.839 144.526 397.345 144.957 397.941 145.224L398.684 145.557L398.003 146.004C397.457 146.362 397.026 146.868 396.759 147.464L396.426 148.207L395.979 147.526C395.621 146.98 395.115 146.549 394.519 146.282L393.776 145.949L394.457 145.502C395.004 145.144 395.436 144.637 395.702 144.042Z" fill="#F30651"/>
<path d="M391.221 116.722L391.78 115.473L392.53 116.617C393.131 117.534 393.982 118.259 394.983 118.707L396.232 119.266L395.088 120.016C394.171 120.617 393.446 121.468 392.999 122.469L392.44 123.718L391.69 122.574C391.089 121.657 390.238 120.932 389.237 120.484L387.988 119.925L389.132 119.175C390.048 118.573 390.773 117.722 391.221 116.722Z" fill="#F30651"/>
<path d="M306.404 108.297L306.963 107.048L307.713 108.192C308.314 109.109 309.165 109.834 310.166 110.282L311.415 110.841L310.271 111.591C309.354 112.192 308.629 113.043 308.181 114.044L307.622 115.293L306.872 114.149C306.271 113.232 305.42 112.507 304.419 112.06L303.17 111.501L304.314 110.751C305.231 110.149 305.956 109.298 306.404 108.297Z" fill="#F30651"/>
<path d="M412.576 298.708C412.576 298.708 412.896 298.674 413.518 298.634C413.83 298.626 414.215 298.586 414.67 298.498C414.898 298.461 415.144 298.421 415.408 298.379C415.667 298.312 415.944 298.24 416.237 298.164C417.407 297.856 418.835 297.321 420.315 296.338C421.787 295.366 423.359 293.978 424.575 292.019C425.203 291.055 425.711 289.944 426.118 288.737C426.467 287.516 426.778 286.2 426.777 284.798C426.812 284.104 426.803 283.373 426.777 282.647C426.758 282.284 426.738 281.916 426.719 281.546C426.663 281.179 426.606 280.809 426.548 280.434C426.266 278.948 425.747 277.446 424.949 276.026C423.375 273.184 420.594 270.717 417.088 269.548C415.335 268.939 413.44 268.771 411.471 268.812C409.502 268.815 407.481 268.818 405.412 268.821C372.285 268.841 326.542 268.867 276.02 268.897C272.924 268.932 269.834 269.92 267.427 271.832C266.217 272.769 265.161 273.894 264.303 275.151C263.459 276.418 262.836 277.82 262.434 279.273C262.216 279.998 262.114 280.746 262.004 281.49C261.96 282.242 261.908 282.985 261.923 283.755C261.93 285.272 262.02 286.765 262.465 288.196C262.878 289.624 263.5 290.984 264.315 292.216C265.152 293.432 266.165 294.515 267.308 295.427C268.443 296.353 269.748 297.044 271.101 297.555C271.772 297.834 272.482 297.985 273.179 298.168C273.893 298.271 274.601 298.414 275.322 298.419C278.22 298.49 281.134 298.441 283.994 298.458C289.725 298.461 295.335 298.464 300.809 298.467C322.702 298.488 342.418 298.507 358.98 298.523C375.53 298.558 388.925 298.586 398.197 298.606C402.818 298.627 406.409 298.644 408.859 298.655C410.069 298.666 410.994 298.675 411.632 298.681C412.256 298.691 412.576 298.708 412.576 298.708C412.576 298.708 412.256 298.726 411.631 298.735C410.993 298.741 410.068 298.75 408.858 298.761C406.407 298.772 402.817 298.789 398.196 298.81C388.924 298.83 375.529 298.858 358.979 298.893C342.417 298.909 322.701 298.928 300.808 298.949C295.334 298.952 289.724 298.955 283.993 298.958C281.122 298.943 278.243 298.996 275.296 298.926C274.55 298.921 273.816 298.775 273.077 298.667C272.354 298.479 271.619 298.321 270.923 298.034C269.521 297.506 268.169 296.79 266.992 295.832C265.807 294.889 264.757 293.767 263.889 292.507C263.044 291.231 262.397 289.821 261.969 288.341C261.508 286.867 261.411 285.288 261.405 283.76C261.39 283.002 261.441 282.217 261.488 281.441C261.6 280.669 261.707 279.894 261.933 279.142C262.35 277.635 262.996 276.181 263.871 274.867C264.76 273.563 265.855 272.397 267.109 271.425C269.604 269.443 272.811 268.415 276.02 268.381C326.542 268.411 372.285 268.438 405.412 268.457C407.482 268.46 409.502 268.463 411.471 268.466C413.434 268.43 415.413 268.609 417.193 269.238C420.778 270.447 423.607 272.98 425.202 275.887C426.01 277.34 426.532 278.875 426.813 280.39C426.87 280.771 426.926 281.149 426.981 281.523C426.999 281.901 427.017 282.275 427.035 282.645C427.058 283.386 427.063 284.097 427.024 284.809C427.017 286.234 426.694 287.572 426.331 288.809C425.91 290.033 425.387 291.157 424.744 292.131C423.497 294.11 421.895 295.502 420.397 296.471C418.892 297.45 417.445 297.974 416.262 298.268C415.965 298.34 415.687 298.417 415.424 298.471C415.158 298.509 414.91 298.545 414.679 298.578C414.221 298.657 413.833 298.689 413.519 298.688C412.896 298.71 412.576 298.708 412.576 298.708Z" fill="#263238"/>
<path d="M412.576 335.212H276.011C268.087 335.212 261.663 328.788 261.663 320.864V319.49C261.663 311.566 268.087 305.142 276.011 305.142H412.576C420.5 305.142 426.924 311.566 426.924 319.49V320.864C426.924 328.789 420.5 335.212 412.576 335.212Z" fill="#F30651"/>
<path d="M294.843 289.671C294.828 289.656 294.813 289.349 294.797 288.783C294.784 288.163 294.766 287.353 294.744 286.35C294.717 284.212 294.68 281.254 294.635 277.676L294.843 277.884C289.886 277.898 283.69 277.917 276.975 277.936C276.917 277.992 277.466 277.443 277.234 277.677V277.68V277.686V277.699V277.724V277.774V277.874V278.074V278.473V279.267C277.234 279.794 277.233 280.318 277.233 280.838C277.232 281.877 277.23 282.9 277.229 283.904C277.223 285.91 277.218 287.839 277.213 289.67L276.975 289.432C282.162 289.48 286.581 289.52 289.78 289.549C291.316 289.576 292.557 289.597 293.481 289.613C293.878 289.624 294.206 289.634 294.48 289.642C294.71 289.652 294.833 289.661 294.843 289.671C294.862 289.69 294.421 289.708 293.583 289.728C292.672 289.744 291.449 289.766 289.936 289.792C286.698 289.821 282.225 289.862 276.974 289.909L276.736 289.911L276.735 289.67C276.73 287.839 276.724 285.909 276.719 283.904C276.718 282.9 276.716 281.877 276.715 280.838C276.715 280.318 276.714 279.795 276.714 279.267V278.473V278.074V277.874V277.774V277.724V277.699V277.686V277.68V277.677C276.481 277.908 277.031 277.358 276.976 277.415C283.691 277.435 289.886 277.453 294.844 277.467L295.055 277.468L295.052 277.676C295.007 281.308 294.97 284.31 294.943 286.479C294.921 287.463 294.903 288.257 294.89 288.865C294.873 289.408 294.858 289.686 294.843 289.671Z" fill="#263238"/>
<path d="M294.843 277.676C294.89 277.73 293.933 278.646 292.347 280.081C290.761 281.517 288.547 283.473 286.08 285.608C285.398 285.608 285.889 285.606 285.735 285.606L285.731 285.603L285.724 285.597L285.71 285.584L285.681 285.559L285.623 285.509L285.508 285.409L285.279 285.21L284.826 284.816C284.527 284.555 284.232 284.298 283.941 284.045C283.366 283.54 282.809 283.051 282.274 282.581C281.247 281.665 280.305 280.824 279.471 280.08C277.885 278.644 276.928 277.73 276.975 277.675C277.022 277.621 278.065 278.437 279.712 279.801C280.568 280.52 281.535 281.333 282.589 282.218C283.131 282.681 283.694 283.162 284.276 283.659C284.568 283.91 284.865 284.165 285.166 284.424L285.62 284.816L285.849 285.014L285.964 285.114L286.022 285.164L286.051 285.189L286.065 285.202L286.072 285.208L286.076 285.211C285.925 285.212 286.419 285.214 285.739 285.213C288.206 283.077 290.459 281.165 292.106 279.801C293.753 278.439 294.796 277.622 294.843 277.676Z" fill="#263238"/>
<path d="M283.429 283.265C283.53 283.367 282.167 284.884 280.385 286.653C278.602 288.422 277.075 289.773 276.974 289.671C276.873 289.569 278.235 288.052 280.018 286.283C281.8 284.514 283.327 283.163 283.429 283.265Z" fill="#263238"/>
<path d="M294.843 289.671C294.736 289.766 293.299 288.327 291.636 286.456C289.972 284.584 288.71 282.99 288.818 282.894C288.925 282.798 290.361 284.238 292.026 286.11C293.688 287.98 294.95 289.575 294.843 289.671Z" fill="#263238"/>
<path d="M305.635 286.072V286.468H301.485V280.454H305.506V280.85H301.924V283.221H305.128V283.608H301.924V286.073H305.635V286.072Z" fill="#263238"/>
<path d="M314.461 283.848V286.468H314.031V283.882C314.031 282.868 313.508 282.336 312.631 282.336C311.617 282.336 310.99 283.015 310.99 284.079V286.468H310.56V283.882C310.56 282.868 310.037 282.336 309.161 282.336C308.146 282.336 307.519 283.015 307.519 284.079V286.468H307.089V281.984H307.502V282.946C307.794 282.319 308.403 281.95 309.22 281.95C310.028 281.95 310.62 282.319 310.861 283.032C311.153 282.38 311.806 281.95 312.674 281.95C313.757 281.949 314.461 282.594 314.461 283.848Z" fill="#263238"/>
<path d="M319.462 283.624V286.468H319.05V285.669C318.766 286.185 318.216 286.502 317.435 286.502C316.43 286.502 315.82 285.986 315.82 285.222C315.82 284.543 316.25 283.968 317.495 283.968H319.033V283.608C319.033 282.774 318.578 282.328 317.702 282.328C317.083 282.328 316.524 282.559 316.155 282.895L315.94 282.585C316.387 282.189 317.04 281.949 317.736 281.949C318.844 281.949 319.462 282.516 319.462 283.624ZM319.033 285.144V284.302H317.504C316.576 284.302 316.25 284.689 316.25 285.204C316.25 285.788 316.705 286.149 317.495 286.149C318.251 286.15 318.775 285.789 319.033 285.144Z" fill="#263238"/>
<path d="M321.091 280.549C321.091 280.36 321.245 280.196 321.443 280.196C321.641 280.196 321.796 280.351 321.796 280.54C321.796 280.737 321.642 280.892 321.443 280.892C321.245 280.892 321.091 280.737 321.091 280.549ZM321.228 281.983H321.658V286.467H321.228V281.983Z" fill="#263238"/>
<path d="M323.468 280.094H323.898V286.468H323.468V280.094Z" fill="#263238"/>
<path d="M311.36 324.213L309.743 321.946C309.529 321.975 309.316 321.995 309.084 321.995H307.146V324.214H306.652V317.432H309.085C310.79 317.432 311.817 318.285 311.817 319.718C311.817 320.794 311.236 321.54 310.228 321.84L311.923 324.214L311.36 324.213ZM309.083 321.558C310.536 321.558 311.312 320.88 311.312 319.717C311.312 318.545 310.537 317.876 309.083 317.876H307.145V321.558H309.083Z" fill="white"/>
<path d="M317.746 321.8H313.395C313.444 323.002 314.326 323.816 315.537 323.816C316.177 323.816 316.767 323.584 317.155 323.109L317.436 323.428C316.99 323.971 316.293 324.252 315.527 324.252C313.996 324.252 312.921 323.186 312.921 321.684C312.921 320.182 313.958 319.117 315.344 319.117C316.729 319.117 317.756 320.164 317.756 321.666C317.756 321.703 317.746 321.752 317.746 321.8ZM313.406 321.422H317.282C317.215 320.327 316.42 319.543 315.344 319.543C314.268 319.543 313.484 320.317 313.406 321.422Z" fill="white"/>
<path d="M318.513 323.603L318.736 323.215C319.124 323.544 319.811 323.825 320.557 323.825C321.623 323.825 322.049 323.447 322.049 322.876C322.049 321.403 318.696 322.488 318.696 320.502C318.696 319.736 319.336 319.116 320.615 319.116C321.255 319.116 321.952 319.31 322.349 319.61L322.126 319.998C321.699 319.687 321.147 319.543 320.605 319.543C319.617 319.543 319.18 319.949 319.18 320.492C319.18 322.014 322.532 320.937 322.532 322.866C322.532 323.689 321.825 324.252 320.536 324.252C319.704 324.252 318.91 323.971 318.513 323.603Z" fill="white"/>
<path d="M328.163 321.8H323.812C323.861 323.002 324.743 323.816 325.954 323.816C326.594 323.816 327.185 323.584 327.572 323.109L327.853 323.428C327.407 323.971 326.71 324.252 325.944 324.252C324.414 324.252 323.338 323.186 323.338 321.684C323.338 320.182 324.375 319.117 325.761 319.117C327.146 319.117 328.173 320.164 328.173 321.666C328.173 321.703 328.163 321.752 328.163 321.8ZM323.823 321.422H327.699C327.632 320.327 326.837 319.543 325.761 319.543C324.685 319.543 323.901 320.317 323.823 321.422Z" fill="white"/>
<path d="M332.185 323.893C331.934 324.135 331.527 324.251 331.149 324.251C330.257 324.251 329.773 323.728 329.773 322.875V319.57H328.842V319.154H329.773V318.049H330.257V319.154H331.865V319.57H330.257V322.826C330.257 323.475 330.576 323.834 331.197 323.834C331.498 323.834 331.779 323.737 331.982 323.553L332.185 323.893Z" fill="white"/>
<path d="M341.343 319.717C341.343 321.142 340.316 321.994 338.611 321.994H336.673V324.213H336.179V317.431H338.612C340.316 317.431 341.343 318.283 341.343 319.717ZM340.839 319.717C340.839 318.545 340.064 317.876 338.61 317.876H336.672V321.548H338.61C340.064 321.548 340.839 320.88 340.839 319.717Z" fill="white"/>
<path d="M346.459 321.006V324.213H345.994V323.312C345.675 323.894 345.055 324.252 344.173 324.252C343.039 324.252 342.351 323.67 342.351 322.808C342.351 322.043 342.835 321.394 344.241 321.394H345.975V320.987C345.975 320.048 345.461 319.544 344.473 319.544C343.776 319.544 343.146 319.806 342.729 320.183L342.487 319.834C342.991 319.389 343.727 319.117 344.512 319.117C345.762 319.116 346.459 319.756 346.459 321.006ZM345.975 322.721V321.772H344.25C343.204 321.772 342.835 322.208 342.835 322.789C342.835 323.448 343.349 323.855 344.24 323.855C345.093 323.854 345.685 323.447 345.975 322.721Z" fill="white"/>
<path d="M347.71 323.603L347.933 323.215C348.321 323.544 349.008 323.825 349.754 323.825C350.82 323.825 351.246 323.447 351.246 322.876C351.246 321.403 347.893 322.488 347.893 320.502C347.893 319.736 348.533 319.116 349.812 319.116C350.452 319.116 351.149 319.31 351.546 319.61L351.323 319.998C350.896 319.687 350.344 319.543 349.802 319.543C348.814 319.543 348.377 319.949 348.377 320.492C348.377 322.014 351.73 320.937 351.73 322.866C351.73 323.689 351.023 324.252 349.734 324.252C348.902 324.252 348.108 323.971 347.71 323.603Z" fill="white"/>
<path d="M352.343 323.603L352.566 323.215C352.954 323.544 353.641 323.825 354.387 323.825C355.453 323.825 355.879 323.447 355.879 322.876C355.879 321.403 352.527 322.488 352.527 320.502C352.527 319.736 353.167 319.116 354.446 319.116C355.086 319.116 355.783 319.31 356.18 319.61L355.957 319.998C355.53 319.687 354.978 319.543 354.436 319.543C353.448 319.543 353.011 319.949 353.011 320.492C353.011 322.014 356.364 320.937 356.364 322.866C356.364 323.689 355.657 324.252 354.368 324.252C353.534 324.252 352.74 323.971 352.343 323.603Z" fill="white"/>
<path d="M364.852 319.155L362.934 324.213H362.479L360.773 319.823L359.058 324.213H358.613L356.694 319.155H357.159L358.846 323.67L360.571 319.155H360.988L362.703 323.66L364.408 319.155H364.852Z" fill="white"/>
<path d="M365.28 321.684C365.28 320.182 366.356 319.117 367.809 319.117C369.262 319.117 370.337 320.182 370.337 321.684C370.337 323.186 369.262 324.252 367.809 324.252C366.356 324.252 365.28 323.185 365.28 321.684ZM369.843 321.684C369.843 320.416 368.971 319.553 367.809 319.553C366.646 319.553 365.774 320.415 365.774 321.684C365.774 322.954 366.646 323.816 367.809 323.816C368.971 323.815 369.843 322.953 369.843 321.684Z" fill="white"/>
<path d="M374.233 319.116V319.591C374.195 319.591 374.156 319.581 374.117 319.581C372.993 319.581 372.325 320.327 372.325 321.577V324.213H371.841V319.155H372.306V320.259C372.615 319.523 373.283 319.116 374.233 319.116Z" fill="white"/>
<path d="M380.018 317.023V324.212H379.543V323.021C379.146 323.805 378.381 324.251 377.47 324.251C376.045 324.251 374.97 323.194 374.97 321.683C374.97 320.162 376.045 319.116 377.47 319.116C378.371 319.116 379.127 319.562 379.533 320.327V317.023H380.018ZM379.533 321.684C379.533 320.416 378.661 319.553 377.499 319.553C376.336 319.553 375.464 320.415 375.464 321.684C375.464 322.954 376.336 323.816 377.499 323.816C378.661 323.815 379.533 322.953 379.533 321.684Z" fill="white"/>
<path d="M444.536 63.4806C444.536 63.6246 398.304 63.7406 341.287 63.7406C284.25 63.7406 238.028 63.6236 238.028 63.4806C238.028 63.3366 284.25 63.2206 341.287 63.2206C398.304 63.2206 444.536 63.3366 444.536 63.4806Z" fill="#263238"/>
<path d="M249.737 55.2787C249.737 56.6667 248.612 57.7917 247.224 57.7917C245.836 57.7917 244.711 56.6667 244.711 55.2787C244.711 53.8907 245.836 52.7657 247.224 52.7657C248.612 52.7647 249.737 53.8907 249.737 55.2787Z" fill="#263238"/>
<path d="M256.957 55.2787C256.957 56.6667 255.832 57.7917 254.444 57.7917C253.056 57.7917 251.931 56.6667 251.931 55.2787C251.931 53.8907 253.056 52.7657 254.444 52.7657C255.832 52.7647 256.957 53.8907 256.957 55.2787Z" fill="#263238"/>
<path d="M264.177 55.2787C264.177 56.6667 263.052 57.7917 261.664 57.7917C260.276 57.7917 259.151 56.6667 259.151 55.2787C259.151 53.8907 260.276 52.7657 261.664 52.7657C263.052 52.7657 264.177 53.8907 264.177 55.2787Z" fill="#263238"/>
<path d="M444.903 360.905C444.901 358.765 444.805 231.964 444.664 47.5187L444.903 47.7577C381.693 47.7647 311.687 47.7717 238.117 47.7787H238.092L238.352 47.5187C238.332 165.778 238.314 274.807 238.299 360.905L238.092 360.698C364.22 360.824 443.211 360.903 444.903 360.905C443.212 360.907 364.22 360.986 238.092 361.112H237.885V360.904C237.87 274.806 237.852 165.777 237.832 47.5177V47.2567H238.092H238.117C311.687 47.2647 381.694 47.2717 444.903 47.2787H445.142V47.5177C445.001 231.964 444.904 358.767 444.903 360.905Z" fill="#263238"/>
<path d="M441.124 445.365C441.133 445.36 441.075 445.221 440.954 444.956C440.818 444.667 440.636 444.279 440.405 443.784C439.938 442.749 439.331 441.181 438.791 439.095C437.723 434.926 437.35 428.555 438.929 420.987C439.662 417.198 440.844 413.133 442.287 408.824C443.709 404.507 445.36 399.927 446.708 394.976C448.042 390.037 449.094 384.674 448.891 379.054C448.686 373.422 447.019 367.8 445.185 362.205C443.355 356.6 441.463 351.122 440.896 345.612C440.255 340.112 441.432 334.712 443.938 330.288C446.365 325.817 449.419 321.992 451.704 318.031C454.025 314.083 455.477 310.023 456.371 306.247C458.105 298.634 457.498 292.219 456.667 287.992C455.766 283.742 454.762 281.545 454.762 281.545C454.752 281.549 454.791 281.694 454.875 281.973C454.97 282.278 455.098 282.687 455.261 283.209C455.597 284.295 456.032 285.917 456.445 288.035C457.204 292.254 457.741 298.624 455.971 306.153C455.059 309.887 453.601 313.893 451.288 317.787C449.008 321.701 445.941 325.509 443.466 330.034C440.907 334.507 439.677 340.083 440.329 345.67C440.9 351.274 442.806 356.789 444.632 362.386C446.465 367.977 448.113 373.54 448.321 379.077C448.529 384.611 447.503 389.922 446.19 394.837C444.864 399.764 443.232 404.345 441.828 408.674C440.402 412.996 439.235 417.093 438.524 420.909C436.987 428.533 437.425 434.968 438.57 439.152C439.149 441.246 439.794 442.811 440.298 443.834C440.552 444.319 440.752 444.7 440.901 444.984C441.04 445.241 441.115 445.37 441.124 445.365Z" fill="#263238"/>
<path d="M448.6 321.938C448.6 321.938 453.24 307.099 444.916 298.411C444.624 298.106 444.109 298.25 444.034 298.666C443.59 301.117 443.035 308.581 448.6 321.938Z" fill="#F30651"/>
<path d="M445.82 303.356C445.741 303.372 445.874 304.416 446.133 306.094C446.438 307.98 446.796 310.193 447.191 312.639C447.579 315.085 447.931 317.298 448.23 319.183C448.484 320.859 448.637 321.898 448.721 321.891C448.796 321.885 448.789 320.829 448.638 319.133C448.484 317.438 448.186 315.105 447.765 312.545C447.347 309.985 446.9 307.68 446.537 306.019C446.175 304.357 445.899 303.34 445.82 303.356Z" fill="#263238"/>
<path d="M443.149 356.936C443.149 356.936 440.311 341.65 428.89 337.863C428.489 337.73 428.102 338.098 428.23 338.501C428.983 340.874 431.983 347.731 443.149 356.936Z" fill="#F30651"/>
<path d="M432.002 341.81C431.94 341.861 432.545 342.721 433.558 344.084C434.71 345.608 436.061 347.397 437.554 349.374C439.041 351.354 440.387 353.146 441.533 354.673C442.541 356.035 443.162 356.883 443.234 356.837C443.298 356.797 442.797 355.867 441.871 354.438C440.943 353.011 439.587 351.089 438.018 349.023C436.451 346.956 434.978 345.127 433.88 343.829C432.784 342.53 432.064 341.76 432.002 341.81Z" fill="#263238"/>
<path d="M446.235 395.284C446.235 395.284 447.959 379.832 438.131 372.892C437.786 372.648 437.309 372.888 437.315 373.31C437.345 375.801 438.223 383.233 446.235 395.284Z" fill="#F30651"/>
<path d="M439.961 377.573C439.887 377.603 440.216 378.603 440.79 380.2C441.449 381.993 442.223 384.098 443.078 386.423C443.926 388.75 444.693 390.855 445.346 392.649C445.915 394.246 446.263 395.237 446.345 395.214C446.418 395.194 446.209 394.159 445.737 392.523C445.263 390.888 444.523 388.655 443.622 386.222C442.723 383.789 441.845 381.611 441.172 380.05C440.5 378.488 440.036 377.543 439.961 377.573Z" fill="#263238"/>
<path d="M437.633 433.856C437.633 433.856 438.803 418.353 428.732 411.769C428.378 411.538 427.91 411.795 427.93 412.217C428.05 414.704 429.194 422.1 437.633 433.856Z" fill="#F30651"/>
<path d="M430.728 416.381C430.655 416.414 431.02 417.401 431.651 418.977C432.374 420.745 433.223 422.821 434.16 425.114C435.09 427.409 435.933 429.486 436.65 431.255C437.276 432.83 437.659 433.808 437.74 433.782C437.812 433.76 437.566 432.733 437.036 431.114C436.504 429.497 435.686 427.292 434.698 424.893C433.712 422.494 432.756 420.349 432.028 418.813C431.3 417.277 430.801 416.348 430.728 416.381Z" fill="#263238"/>
<path d="M455.269 308.901C455.269 308.901 469.05 301.704 469.32 289.675C469.329 289.253 468.864 288.991 468.517 289.231C466.469 290.647 460.793 295.526 455.269 308.901Z" fill="#F30651"/>
<path d="M466.459 293.807C466.392 293.762 465.747 294.593 464.742 295.962C463.622 297.51 462.309 299.327 460.857 301.334C459.4 303.337 458.081 305.149 456.958 306.692C455.951 308.056 455.323 308.898 455.388 308.953C455.445 309.002 456.187 308.251 457.281 306.946C458.373 305.64 459.813 303.781 461.328 301.674C462.844 299.569 464.161 297.625 465.08 296.195C466 294.765 466.526 293.852 466.459 293.807Z" fill="#263238"/>
<path d="M440.471 340.768C440.471 340.768 454.664 334.421 455.664 322.431C455.699 322.01 455.25 321.72 454.889 321.939C452.758 323.228 446.797 327.754 440.471 340.768Z" fill="#F30651"/>
<path d="M452.557 326.382C452.493 326.333 451.799 327.124 450.712 328.429C449.501 329.906 448.079 331.64 446.508 333.556C444.932 335.466 443.506 337.195 442.291 338.667C441.203 339.967 440.525 340.769 440.587 340.828C440.641 340.881 441.427 340.176 442.599 338.94C443.768 337.703 445.318 335.934 446.959 333.924C448.6 331.915 450.032 330.054 451.037 328.682C452.041 327.311 452.62 326.431 452.557 326.382Z" fill="#263238"/>
<path d="M448.637 376.315C448.637 376.315 458.382 364.201 453.811 353.07C453.65 352.679 453.119 352.626 452.897 352.985C451.588 355.103 448.341 361.847 448.637 376.315Z" fill="#F30651"/>
<path d="M452.845 358.003C452.766 357.989 452.508 359.009 452.135 360.665C451.73 362.532 451.253 364.723 450.727 367.144C450.194 369.562 449.712 371.751 449.301 373.615C448.925 375.268 448.686 376.291 448.768 376.315C448.84 376.337 449.219 375.351 449.699 373.717C450.176 372.083 450.751 369.802 451.295 367.266C451.842 364.73 452.269 362.421 452.538 360.742C452.808 359.064 452.923 358.017 452.845 358.003Z" fill="#263238"/>
<path d="M438.984 418.145C438.984 418.145 453.068 411.561 453.867 399.555C453.895 399.134 453.441 398.851 453.084 399.076C450.976 400.401 445.091 405.026 438.984 418.145Z" fill="#F30651"/>
<path d="M450.827 403.558C450.762 403.51 450.081 404.313 449.017 405.635C447.831 407.132 446.438 408.89 444.9 410.831C443.356 412.767 441.96 414.52 440.77 416.013C439.704 417.331 439.04 418.144 439.102 418.203C439.157 418.255 439.931 417.537 441.082 416.281C442.23 415.024 443.75 413.23 445.357 411.192C446.965 409.156 448.365 407.271 449.346 405.883C450.327 404.495 450.892 403.605 450.827 403.558Z" fill="#263238"/>
<path d="M410.931 357.019C410.918 357.02 410.912 357.136 410.913 357.361C410.92 357.632 410.928 357.958 410.938 358.355C410.979 359.289 411.035 360.551 411.105 362.125C411.287 365.439 411.54 370.06 411.843 375.588L411.844 375.601L411.847 375.62C412.852 381.246 415.718 387.481 419.566 393.535C422.389 397.995 425.349 402.049 427.901 405.82C430.47 409.58 432.638 413.063 434.15 416.149C435.671 419.231 436.556 421.879 437.073 423.729C437.321 424.658 437.507 425.382 437.614 425.878C437.73 426.372 437.8 426.63 437.82 426.626C437.84 426.623 437.808 426.358 437.729 425.855C437.659 425.35 437.508 424.615 437.293 423.672C436.84 421.794 436.008 419.101 434.521 415.97C433.044 412.834 430.896 409.305 428.346 405.52C425.811 401.722 422.868 397.661 420.059 393.224C416.23 387.2 413.38 381.059 412.337 375.524L412.341 375.556C411.953 370.034 411.629 365.417 411.396 362.106C411.269 360.535 411.167 359.277 411.092 358.345C411.052 357.95 411.02 357.625 410.993 357.356C410.965 357.133 410.944 357.018 410.931 357.019Z" fill="#263238"/>
<path d="M419.317 392.378C419.317 392.378 413.352 378.02 420.855 368.614C421.118 368.284 421.644 368.381 421.757 368.788C422.421 371.188 423.651 378.571 419.317 392.378Z" fill="#F30651"/>
<path d="M420.403 373.62C420.323 373.612 420.141 374.649 419.93 376.336C419.719 378.023 419.483 380.359 419.298 382.947C419.111 385.535 419.025 387.885 419.025 389.588C419.029 391.291 419.116 392.343 419.192 392.342C419.277 392.341 419.335 391.292 419.436 389.6C419.563 387.695 419.713 385.459 419.878 382.988C420.05 380.517 420.207 378.28 420.34 376.374C420.446 374.68 420.483 373.628 420.403 373.62Z" fill="#263238"/>
<g opacity="0.3">
<path d="M419.317 392.378C419.317 392.378 413.352 378.02 420.855 368.614C421.118 368.284 421.644 368.381 421.757 368.788C422.421 371.188 423.651 378.571 419.317 392.378Z" fill="black"/>
</g>
<path d="M437.792 426.977C437.792 426.977 433.011 412.183 441.252 403.416C441.541 403.108 442.057 403.248 442.136 403.662C442.604 406.108 443.231 413.567 437.792 426.977Z" fill="#F30651"/>
<path d="M440.396 408.369C440.317 408.354 440.051 409.374 439.704 411.038C439.357 412.702 438.932 415.012 438.538 417.576C438.142 420.14 437.865 422.476 437.728 424.172C437.593 425.87 437.596 426.926 437.671 426.931C437.756 426.937 437.898 425.896 438.137 424.218C438.418 422.33 438.749 420.113 439.114 417.664C439.486 415.215 439.823 412.998 440.11 411.109C440.352 409.428 440.475 408.383 440.396 408.369Z" fill="#263238"/>
<g opacity="0.3">
<path d="M437.792 426.977C437.792 426.977 433.011 412.183 441.252 403.416C441.541 403.108 442.057 403.248 442.136 403.662C442.604 406.108 443.231 413.567 437.792 426.977Z" fill="black"/>
</g>
<path d="M411.721 374.831C411.721 374.831 398.984 365.915 400.27 353.952C400.315 353.532 400.81 353.332 401.124 353.615C402.972 355.284 407.97 360.855 411.721 374.831Z" fill="#F30651"/>
<g opacity="0.3">
<path d="M411.721 374.831C411.721 374.831 398.984 365.915 400.27 353.952C400.315 353.532 400.81 353.332 401.124 353.615C402.972 355.284 407.97 360.855 411.721 374.831Z" fill="black"/>
</g>
<path d="M402.574 358.419C402.502 358.455 402.905 359.429 403.632 360.965C404.359 362.502 405.413 364.6 406.645 366.883C407.875 369.168 409.063 371.197 409.977 372.633C410.894 374.068 411.533 374.909 411.595 374.868C411.666 374.821 411.152 373.906 410.33 372.423C409.416 370.747 408.342 368.78 407.156 366.606C405.975 364.428 404.907 362.456 403.997 360.777C403.178 359.291 402.646 358.383 402.574 358.419Z" fill="#263238"/>
<path d="M432.656 412.31C432.656 412.31 417.294 409.915 413.179 398.608C413.035 398.211 413.391 397.813 413.797 397.929C416.193 398.614 423.134 401.414 432.656 412.31Z" fill="#F30651"/>
<g opacity="0.3">
<path d="M432.656 412.31C432.656 412.31 417.294 409.915 413.179 398.608C413.035 398.211 413.391 397.813 413.797 397.929C416.193 398.614 423.134 401.414 432.656 412.31Z" fill="black"/>
</g>
<path d="M417.216 401.604C417.167 401.668 417.958 402.364 419.288 403.424C420.617 404.484 422.488 405.903 424.6 407.41C426.711 408.919 428.671 410.218 430.124 411.105C431.579 411.99 432.523 412.463 432.561 412.398C432.605 412.325 431.74 411.729 430.349 410.76C428.79 409.658 426.96 408.365 424.938 406.936C422.919 405.5 421.091 404.201 419.535 403.094C418.142 402.121 417.264 401.54 417.216 401.604Z" fill="#263238"/>
<path d="M450.832 440.581L446.427 469.482L428.83 469.452L422.902 440.581H450.832Z" fill="#455A64"/>
<path d="M434.772 449.859C435.223 449.175 435.537 448.348 435.587 447.441C435.653 446.556 435.306 445.481 434.393 444.956C433.483 444.431 432.31 444.621 431.445 445.199C430.54 445.786 430.011 446.814 429.759 447.853C429.506 448.909 429.478 450.007 429.54 451.117C429.612 452.228 429.817 453.367 430.254 454.455C430.68 455.543 431.366 456.572 432.294 457.365C433.217 458.154 434.401 458.72 435.68 458.779C436.959 458.836 438.181 458.394 439.202 457.756C440.229 457.111 441.102 456.294 441.83 455.381C442.551 454.467 443.094 453.374 443.161 452.206C443.217 451.059 442.813 449.865 441.912 449.145C440.999 448.403 439.705 448.457 438.794 448.955C437.856 449.428 437.159 450.326 436.995 451.311C436.657 453.294 437.814 455.082 439.22 455.886C440.66 456.708 442.226 456.732 443.468 456.5C444.73 456.255 445.725 455.758 446.495 455.315C447.265 454.864 447.819 454.451 448.19 454.167C448.559 453.881 448.743 453.717 448.733 453.705C448.722 453.691 448.519 453.828 448.133 454.088C447.745 454.345 447.176 454.731 446.403 455.151C445.631 455.563 444.641 456.023 443.421 456.234C442.217 456.435 440.722 456.378 439.394 455.592C438.102 454.839 437.062 453.146 437.388 451.388C437.539 450.525 438.153 449.75 438.987 449.333C439.805 448.9 440.887 448.877 441.636 449.494C442.389 450.097 442.758 451.157 442.701 452.182C442.638 453.217 442.144 454.228 441.458 455.09C440.766 455.955 439.918 456.744 438.95 457.349C437.983 457.951 436.856 458.35 435.703 458.298C434.553 458.245 433.466 457.734 432.606 457.001C431.742 456.263 431.1 455.31 430.693 454.28C430.276 453.252 430.074 452.161 430.001 451.088C429.935 450.015 429.961 448.943 430.192 447.958C430.423 446.982 430.902 446.062 431.681 445.552C432.442 445.034 433.457 444.88 434.195 445.303C434.946 445.727 435.262 446.612 435.216 447.426C435.181 448.248 434.898 449.032 434.487 449.671C433.622 450.946 432.364 451.73 431.207 452.129C430.038 452.54 428.945 452.591 428.08 452.502C426.328 452.303 425.505 451.659 425.48 451.73C425.476 451.737 425.525 451.773 425.627 451.837C425.73 451.897 425.878 452 426.09 452.102C426.511 452.308 427.166 452.566 428.057 452.689C428.943 452.81 430.072 452.787 431.292 452.385C432.504 451.992 433.828 451.209 434.772 449.859Z" fill="#263238"/>
</svg>
